<svg width="487" height="68" viewBox="0 0 487 68" fill="none" xmlns="http://www.w3.org/2000/svg">
<path d="M3.18414 60.9969L3.11161 60.8086H1.12109V62.8398H1.36017V64.6046H1.12109V66.6305H3.06863V66.1677L3.27279 66.7112H4.87648V62.8398H5.11556V60.8086H3.18414V60.9969Z" fill="white"/>
<path d="M14.8671 60.9969L14.7918 60.8086H12.7986V62.8398H13.0431V64.6046H12.8927H12.7986H12.6133L12.2614 62.8398H12.3876V60.8086H12.0089L11.6248 59.5764H10.3649L9.97002 60.8086H9.59394V62.8398H9.72825L9.37636 64.6046H9.14534H9.10236H8.93313V62.8398H9.14534V60.8086H5.15625V62.8398H5.36578V64.6046H5.15625V66.6304H9.10236H9.14534H12.7986H12.8927H14.7516V66.1677L14.953 66.7111H16.554V62.8398H16.7931V60.8086H14.8671V60.9969Z" fill="white"/>
<path d="M28.3619 60.997L28.2867 60.8087H26.2989V62.8399H26.5353V64.6047H26.1081L25.7562 62.8399H25.8798V60.8087H25.1868C25.2136 60.771 25.2351 60.736 25.2593 60.6984C25.356 60.5208 25.4043 60.3298 25.4043 60.1361C25.4043 59.9182 25.3452 59.7272 25.2351 59.5711C25.0847 59.364 24.8671 59.2537 24.6173 59.2537L24.2976 59.2644H23.8974L23.6825 60.4831H23.9699C23.9323 60.5612 23.9054 60.6526 23.9054 60.7495V60.8087H23.0915V62.8399H23.2231L22.8712 64.6047H22.6348C22.6106 64.3276 22.5596 64.0693 22.4522 63.8407C22.3984 63.7304 22.342 63.6308 22.2722 63.5447C22.3125 63.4855 22.3501 63.4237 22.3823 63.3564C22.4978 63.117 22.5569 62.8345 22.5569 62.5197C22.5569 62.0624 22.4548 61.6857 22.2614 61.4032C22.0841 61.1288 21.7349 60.8087 21.0875 60.8087H18.7344V62.8399H18.9734V64.6047H18.7344V66.6332H21.0258C21.751 66.6332 22.1432 66.2915 22.342 66.0037C22.4629 65.8261 22.5435 65.6163 22.5945 65.3795V66.6332H28.2464V66.1705L28.4479 66.7139H30.0489V62.8426H30.2853V60.8114H28.3592V60.9997L28.3619 60.997Z" fill="white"/>
<path d="M35.3482 62.7295H32.2617V64.7257H35.3482V62.7295Z" fill="white"/>
<path d="M41.242 62.7779C41.2366 62.2533 41.1211 61.8094 40.8981 61.4623C40.6107 61.0346 40.1729 60.8086 39.6275 60.8086H37.3711V62.8425H37.637V64.5993H37.3711V66.6358H39.7968V64.7553C40.0144 64.7472 40.2051 64.6853 40.3851 64.5912C40.42 64.575 40.4603 64.5616 40.4952 64.5428C40.694 64.4109 40.8632 64.2226 40.9868 63.9832C41.1533 63.6603 41.2393 63.2676 41.242 62.8156V62.8452H41.4488V64.6019H41.242V66.6385H45.2338V64.6019H45.0216V62.8452H45.2338V60.8113H41.242V62.7833V62.7779Z" fill="white"/>
<path d="M45.2539 62.8427H45.4634V64.2309C45.4634 65.0461 45.5816 65.638 45.8207 66.0361C45.9443 66.2487 46.1081 66.4155 46.3015 66.5312C46.2478 66.5796 46.2048 66.6307 46.1672 66.6845C46.1619 66.6926 46.1592 66.6979 46.1565 66.706C46.1269 66.7464 46.1028 66.7921 46.0813 66.8405C46.0786 66.8513 46.0759 66.8648 46.0678 66.8755C46.0517 66.9159 46.0437 66.9562 46.0356 66.9993C46.0356 67.0046 46.0356 67.01 46.0356 67.0154C46.0275 67.0558 46.0222 67.0934 46.0222 67.1365C46.0222 67.5454 46.272 67.9785 46.9785 67.9785C47.1182 67.9785 47.2364 67.9516 47.3358 67.9194C47.3411 67.9167 47.3492 67.914 47.3519 67.914C47.4808 67.8682 47.5829 67.8064 47.6474 67.7445C47.83 67.5777 47.9294 67.3651 47.9294 67.123C47.9294 66.9078 47.8461 66.7087 47.693 66.5581C48.0369 66.3805 48.335 66.0119 48.4801 65.3259C48.5392 65.0569 48.5768 64.7421 48.5768 64.3628V62.8562H48.7944V60.8115H45.2566V62.84L45.2539 62.8427Z" fill="white"/>
<path d="M50.9107 60.97L50.857 60.8086H48.8477V62.8425H49.0867V64.5993H48.8477V66.6358H50.8006V66.1839L50.8946 66.4314L50.9913 66.7165H52.6057V62.8425H52.8421V60.8086H50.9107V60.97Z" fill="white"/>
<path d="M56.6216 60.8085H55.2785C55.12 60.7386 54.9427 60.7063 54.76 60.7063C54.3598 60.7063 53.7957 60.8731 53.3605 61.6506C53.0569 62.1994 52.8984 62.8935 52.8984 63.7195C52.8984 64.4028 53.0113 65.0027 53.2315 65.5004C53.6613 66.5066 54.3947 66.7192 54.9346 66.7192C55.3161 66.7192 55.8614 66.582 56.2643 65.9175C56.5706 65.4251 56.7237 64.7525 56.7237 63.9239V63.133H56.627V60.8085H56.6216ZM55.1629 63.133H54.9454C54.9642 62.9635 54.983 62.872 55.0045 62.8182C55.0045 62.8047 55.0125 62.7913 55.0179 62.7778C55.0528 62.8263 55.0958 62.9124 55.1468 63.0738L55.1656 63.1357L55.1629 63.133Z" fill="white"/>
<path d="M61.1432 63.0632H61.6214V60.806H60.3508C60.2191 60.7576 60.0929 60.7415 59.9854 60.7415C59.7061 60.7415 59.3058 60.8464 59.0103 61.3548C58.8169 61.6911 58.7148 62.1216 58.7148 62.6381C58.7148 63.0955 58.8142 63.5125 59.0184 63.8757C59.0721 63.9833 59.15 64.0909 59.2333 64.1958H58.7336V66.6333H60.058C60.1896 66.6817 60.3158 66.6951 60.4179 66.6951C60.7027 66.6951 61.1029 66.5875 61.4172 66.0602C61.6267 65.7078 61.7315 65.2746 61.7315 64.7689C61.7315 64.2631 61.6375 63.8353 61.4468 63.4829C61.3662 63.3457 61.2695 63.2031 61.1459 63.0605L61.1432 63.0632Z" fill="white"/>
<path d="M64.3935 60.814H61.7422V62.8425H61.9517V64.2307C61.9517 65.0458 62.0699 65.6377 62.3117 66.0359C62.4326 66.243 62.5883 66.4018 62.7683 66.5174C62.6286 66.6681 62.5507 66.8564 62.5507 67.0636C62.5507 67.4698 62.7979 67.9056 63.5044 67.9056C63.6467 67.9056 63.7622 67.8787 63.8616 67.8465C63.8643 67.8465 63.8697 67.8465 63.8777 67.8438C64.0067 67.798 64.1034 67.7415 64.1652 67.6824C64.3532 67.5209 64.4553 67.3003 64.4553 67.0555C64.4553 66.8537 64.3855 66.6708 64.2511 66.5255C64.5735 66.3318 64.8421 65.9632 64.9711 65.3095C65.0275 65.0431 65.0624 64.7364 65.0624 64.3679V62.9016C65.1564 62.864 65.2397 62.8075 65.3122 62.7402C65.3364 62.7133 65.3525 62.6891 65.3767 62.6595C65.4089 62.6192 65.4465 62.5869 65.4734 62.5438C65.5835 62.3555 65.6399 62.1053 65.6399 61.7879V60.6794H64.3935V60.8166V60.814Z" fill="white"/>
<path d="M70.4015 62.7295H67.3203V64.723H70.4015V62.7295Z" fill="white"/>
<path d="M84.0758 62.8398H84.323V64.6046H84.1537H84.0758H83.877L83.5225 62.8398H83.6487V60.8086H80.8604V62.8398H80.9947L80.6428 64.6046H80.4118H80.3607H80.1942V62.8398H80.4118V60.8086H76.4173V62.8398H76.6241V64.6046H76.4361H76.4173H76.1594L75.6544 63.3967L75.9821 62.8398H76.3716V60.8086H72.4336V62.8398H72.6431V64.6046H72.4336V66.6305H76.4173H76.4361H80.3607H80.4118H84.0758H84.1537H86.4612V64.6046H86.2114V62.8398H86.4612V60.8086H84.0758V62.8398Z" fill="white"/>
<path d="M90.6625 60.8086H88.4141V62.8398H88.6773V64.6046H88.4141V66.6331H90.8344V64.7526C91.3609 64.7365 91.7692 64.4701 92.0217 63.9832C92.1883 63.6577 92.2769 63.2595 92.2769 62.8021C92.2769 62.2667 92.1614 61.8175 91.9331 61.465C91.6483 61.0373 91.2131 60.8086 90.6651 60.8086H90.6625Z" fill="white"/>
<path d="M92.2812 62.8398H92.4854V64.6046H92.2812V66.6305H96.2676V64.6046H96.0581V62.8398H96.2676V60.8086H92.2812V62.8398Z" fill="white"/>
<path d="M98.8974 60.8195L99.7355 59.4958H98.0378L97.6456 60.8652C97.3447 61.0159 97.0385 61.293 96.7833 61.7907C96.5147 62.3368 96.375 62.9825 96.375 63.7116C96.375 64.4407 96.5147 65.0863 96.7887 65.6325C97.2373 66.5257 97.8712 66.714 98.3252 66.714C98.7792 66.714 99.4132 66.5284 99.8644 65.6325C100.138 65.089 100.278 64.438 100.278 63.7116C100.278 62.9852 100.138 62.3341 99.8644 61.788C99.5824 61.2365 99.2332 60.954 98.9001 60.8222L98.8974 60.8195Z" fill="white"/>
<path d="M102.404 60.9969L102.334 60.8086H100.344V62.8398H100.58V64.6046H100.344V66.6305H102.291V66.1677L102.493 66.7112H104.096V62.8398H104.336V60.8086H102.404V60.9969Z" fill="white"/>
<path d="M108.116 63.1359V60.8088H106.776C106.615 60.7442 106.443 60.7092 106.255 60.7092C105.857 60.7092 105.296 60.8733 104.86 61.6562C104.557 62.1997 104.398 62.8965 104.398 63.7197C104.398 64.403 104.509 65.003 104.729 65.5007C105.161 66.5069 105.892 66.714 106.427 66.714C106.811 66.714 107.351 66.5768 107.754 65.9177C108.06 65.4227 108.216 64.7528 108.216 63.9242V63.1359H108.116ZM106.44 63.1359C106.453 62.9772 106.475 62.8803 106.496 62.8184C106.496 62.7996 106.502 62.7862 106.507 62.7727C106.542 62.8184 106.593 62.9099 106.65 63.0875L106.66 63.1359H106.437H106.44Z" fill="white"/>
<path d="M108.206 58.3846C91.8814 51.8983 73.7304 48.2798 54.6016 48.2798C35.4727 48.2798 17.319 51.901 1 58.3846C17.7998 56.6386 35.8327 55.6889 54.6016 55.6889C73.3704 55.6889 91.4086 56.6386 108.206 58.3846Z" fill="#FFD012" stroke="#231F20" stroke-width="0.13" stroke-miterlimit="10"/>
<path d="M12.5703 56.4856C23.2831 55.6947 34.4284 55.1889 45.8933 55.0113C48.8428 53.0232 51.9186 51.0754 55.1072 49.1787C39.3469 50.4243 25.2199 52.964 12.5703 56.4856Z" stroke="#FBE175" stroke-width="0.66" stroke-miterlimit="10"/>
<path d="M45.8906 55.0084C48.9342 54.9573 52.0072 54.9331 55.0911 54.9331L55.1045 49.1758C51.9159 51.0725 48.8401 53.0203 45.8906 55.0084Z" stroke="#FBE175" stroke-width="0.66" stroke-miterlimit="10"/>
<path d="M55.1216 54.9358C58.2108 54.9358 61.2812 54.96 64.3247 55.0057C61.3725 53.0149 58.3048 51.0698 55.1055 49.1785L55.1216 54.9358Z" stroke="#FBE175" stroke-width="0.66" stroke-miterlimit="10"/>
<path d="M55.0898 54.9358H55.1196L55.1034 49.1785L55.0898 54.9358Z" stroke="#FBE175" stroke-width="0.66" stroke-miterlimit="10"/>
<path d="M97.6477 56.4854C84.9981 52.9611 70.8738 50.4241 55.1055 49.1785C58.3048 51.0698 61.3725 53.0149 64.3247 55.0057C69.5548 55.0864 74.7286 55.2344 79.811 55.4496C85.8738 55.7025 91.8212 56.0549 97.6477 56.4854Z" stroke="#FBE175" stroke-width="0.66" stroke-miterlimit="10"/>
<path d="M15.3415 10.0879H6.74275L4.59375 1H15.3415V10.0879ZM15.3415 19.4502H8.95892L6.80722 10.3677H15.3415V19.4502ZM15.3415 28.8852H11.1912L9.04219 19.8027H15.3415V28.8852ZM15.3415 38.3201H13.4235L11.2664 29.2376H15.3415V38.3201ZM15.3415 38.6699V46.4234L13.5067 38.6699H15.3415ZM17.5361 10.0933L15.7551 10.0879V2.55501L17.5361 10.0933ZM19.7523 19.4583L15.7525 19.4502V10.3677L17.6006 10.3758L19.7523 19.4583ZM26.5029 28.8852H15.7525V19.8027H19.8302L21.09 25.1349L22.4493 19.8027H26.5002V28.8852H26.5029ZM26.5029 38.3201H15.7525V29.2349H26.5029V38.3201ZM26.5029 47.7497H15.7525V38.6672H26.5029V47.7497ZM26.5029 19.4502H22.5406L24.6278 10.3569L26.5029 10.365V19.4475V19.4502ZM26.5029 10.0879L24.695 10.0745L26.5029 2.52541V10.0879ZM37.6642 1L35.5743 10.0879H26.9139V1H37.6642ZM35.5072 10.3677L33.248 19.4502H26.9139V10.3677H35.5072ZM33.1675 19.8027L30.9943 28.8906L26.9139 28.8852V19.8027H33.1675ZM30.911 29.2403L28.7351 38.3228H26.9139V29.2376H30.9083L30.911 29.2403ZM28.6545 38.6726L26.9139 45.9365V38.6726H28.6545Z" fill="#C52032"/>
<path d="M48.8871 10.0879H38.1367V1H48.8871V10.0879ZM48.8871 19.4502H38.1367V10.3677H48.8871V19.4502ZM48.8871 28.8852H38.1367V19.8027H48.8871V28.8852ZM48.8871 38.3201H38.1367V29.2349H48.8871V38.3201ZM48.8871 47.7497H38.1367V38.6672H48.8871V47.7497ZM60.0593 19.8027L57.1984 24.6506L59.8094 28.8852H49.2981V19.8027H60.0593ZM60.0485 38.3201H54.8184L49.3814 29.2349H60.0485V38.3201ZM60.0485 19.4502H49.5479L54.9043 10.3677H60.0485V19.4502ZM60.0485 47.0529L55.0306 38.6699H60.0485V47.0529ZM60.0485 10.0879H55.1542L60.0485 1.62953V10.0879ZM71.132 1L65.7783 10.0879H60.4568V1H71.132ZM65.6225 10.3677L60.4568 19.2727V10.3677H65.6225ZM65.4721 38.3201H60.4595V30.0017L65.4721 38.3201ZM71.2099 47.7497H60.4595V38.6672H65.687L71.2099 47.7497Z" fill="#FFD012"/>
<path d="M82.2841 10.0879H71.5391V1H82.2841V10.0879ZM82.2841 19.4502H71.5391V10.3677H82.2841V19.4502ZM82.2841 28.8852H71.5391V19.8027H82.2841V28.8852ZM82.2841 38.3201H71.5391V29.2349H82.2841V38.3201ZM82.2841 47.7497H76.8229C75.3911 47.7497 74.1474 47.3004 73.1078 46.3857C72.0575 45.4791 71.5418 44.4218 71.5418 43.2138V38.6699H82.2868V47.7524L82.2841 47.7497ZM93.4455 47.7497H82.6951V38.6672H93.4455V47.7497ZM104.604 10.0879H93.8538V1H104.604V10.0879ZM104.604 19.4502H93.8538V10.3677H104.604V19.4502ZM104.604 28.8852H93.8538V19.8027H104.604V28.8852ZM104.604 38.3201H93.8538V29.2349H104.604V38.3201ZM104.604 38.6699V43.2138C104.604 44.4245 104.078 45.4791 103.038 46.3857C101.99 47.3004 100.749 47.7497 99.3176 47.7497H93.8538V38.6672H104.604V38.6699Z" fill="#223B73"/>
<path d="M48.8871 10.0879V1H38.1367V10.0879" fill="#FFD012"/>
<path d="M48.8871 10.0879V1H38.1367V10.0879" stroke="#262626" stroke-width="0.13" stroke-miterlimit="10"/>
<path d="M38.1367 10.3677V19.4502" stroke="#262626" stroke-width="0.13" stroke-miterlimit="10"/>
<path d="M38.1367 19.8323V28.9175" stroke="#262626" stroke-width="0.13" stroke-miterlimit="10"/>
<path d="M38.1367 29.2429V38.3255" stroke="#262626" stroke-width="0.13" stroke-miterlimit="10"/>
<path d="M48.918 29.2429V38.3255" stroke="#262626" stroke-width="0.13" stroke-miterlimit="10"/>
<path d="M38.1367 38.6699V47.7498H48.8871V38.6699" fill="#FFD012"/>
<path d="M38.1367 38.6699V47.7498H48.8871V38.6699" stroke="#262626" stroke-width="0.13" stroke-miterlimit="10"/>
<path d="M49.3867 29.2349L54.8237 38.3201" stroke="#262626" stroke-width="0.13" stroke-miterlimit="10"/>
<path d="M55.0312 38.6699L60.0519 47.053" stroke="#262626" stroke-width="0.13" stroke-miterlimit="10"/>
<path d="M60.4609 47.7498H71.2113L65.6884 38.6699" fill="#FFD012"/>
<path d="M60.4609 47.7498H71.2113L65.6884 38.6699" stroke="#262626" stroke-width="0.13" stroke-miterlimit="10"/>
<path d="M65.4735 38.3202L60.4609 29.999" stroke="#262626" stroke-width="0.13" stroke-miterlimit="10"/>
<path d="M59.8103 28.885L57.1992 24.6504L60.0574 19.8025" stroke="#262626" stroke-width="0.13" stroke-miterlimit="10"/>
<path d="M60.4609 19.2724L65.6266 10.3674" stroke="#262626" stroke-width="0.13" stroke-miterlimit="10"/>
<path d="M65.7824 10.0879L71.1361 1H60.4609" stroke="#262626" stroke-width="0.13" stroke-miterlimit="10"/>
<path d="M60.0506 1.62964L55.1562 10.088" stroke="#262626" stroke-width="0.13" stroke-miterlimit="10"/>
<path d="M54.9072 10.3674L49.5508 19.45" stroke="#262626" stroke-width="0.13" stroke-miterlimit="10"/>
<path d="M48.8867 10.3674V19.45" stroke="#262626" stroke-width="0.13" stroke-miterlimit="10"/>
<path d="M9.51172 66.1192V64.922H9.71587L10.2316 62.3285H10.014V61.1287H11.9723V62.3285H11.7521L12.2732 64.922H12.472V66.1192H11.0483V65.0269H11.2846L11.1853 64.4001H10.4868L10.3686 65.0269H10.5943V66.1192H9.5144H9.51172ZM10.374 60.8004L10.6641 59.8938H11.3142L11.5962 60.8004H11.2067L10.9865 60.4534L10.7635 60.8004H10.374ZM10.5889 63.7786H11.0751L10.8441 62.3985H10.836L10.5889 63.7786Z" fill="#C52033"/>
<path d="M13.2136 66.1192V64.922H13.4554V62.3286H13.2136V61.1287H14.5057L15.4996 63.7356H15.505V62.3286H15.2794V61.1287H16.378V62.3286H16.1443V66.2026H15.2444L14.1001 63.1652H14.0893V64.9193H14.3338V66.1165H13.2109L13.2136 66.1192Z" fill="#C52033"/>
<path d="M19.1499 66.1192V64.922H19.3863V62.3286H19.1499V61.1287H21.084C21.4574 61.1287 21.7341 61.2632 21.9141 61.5322C22.0672 61.7528 22.1397 62.0514 22.1397 62.4227C22.1397 62.6756 22.094 62.8935 22.0054 63.0765C21.9167 63.2567 21.7959 63.3805 21.6401 63.445V63.4612C21.82 63.5365 21.9651 63.6899 22.0752 63.9212C22.1827 64.1526 22.2364 64.4162 22.2364 64.7176C22.2364 65.113 22.1558 65.4332 21.992 65.6726C21.7851 65.9712 21.4601 66.1192 21.0195 66.1192H19.1445H19.1499ZM20.442 63.1356H20.6918C20.9363 63.1356 21.0571 62.985 21.0571 62.6837C21.0571 62.3824 20.9416 62.2263 20.7052 62.2263H20.442V63.1356ZM20.442 65.0269H20.6811C20.8288 65.0269 20.9363 64.9866 21.0007 64.9166C21.0652 64.8413 21.1001 64.7176 21.1001 64.54C21.1001 64.2037 20.9766 64.0369 20.7321 64.0369H20.4447V65.0243L20.442 65.0269Z" fill="#C52033"/>
<path d="M23.0066 66.1193V64.9221H23.2081L23.7238 62.3286H23.5035V61.1287H25.4618V62.3286H25.2442L25.7654 64.9221H25.9668V66.1193H24.5404V65.027H24.7795L24.6748 64.4002H23.9763L23.8581 65.027H24.0838V66.1193H23.0039H23.0066ZM24.0865 63.776H24.57L24.3417 62.3959H24.3336L24.0865 63.776ZM24.6103 59.5845L24.6157 59.571C24.7339 59.571 24.8252 59.6195 24.8977 59.7163C24.9595 59.7997 24.989 59.91 24.989 60.0419C24.989 60.1629 24.9541 60.284 24.8897 60.4024C24.852 60.4669 24.7903 60.5449 24.7097 60.6364C24.6506 60.7064 24.621 60.7521 24.6291 60.7709H24.3148V60.6526C24.3148 60.5853 24.3685 60.4911 24.4787 60.3701C24.5861 60.249 24.6425 60.1495 24.6425 60.0687C24.6425 60.0015 24.5781 59.9692 24.4491 59.9692H24.1751L24.245 59.5845H24.6103Z" fill="#C52033"/>
<path d="M26.7109 66.1192V64.922H26.95V62.3286H26.7109V61.1287H28.0003L28.9943 63.7356H28.9996V62.3286H28.774V61.1287H29.8727V62.3286H29.6363V66.2026H28.7364L27.5947 63.1652H27.5867V64.9193H27.8311V66.1165H26.7109V66.1192Z" fill="#C52033"/>
<path d="M32.6797 63.0496H34.9281V64.2145H32.6797V63.0496Z" fill="#FFD111"/>
<path d="M37.7891 66.1192V64.922H38.055V62.3286H37.7891V61.1287H39.6291C40.0321 61.1287 40.341 61.2874 40.5505 61.5968C40.7332 61.8766 40.8245 62.2451 40.8245 62.7025C40.8245 63.0953 40.7547 63.4262 40.615 63.6925C40.4297 64.0584 40.1369 64.236 39.742 64.236H39.1107V64.9193H39.3847V66.1165H37.7918L37.7891 66.1192ZM39.108 63.1464H39.3954C39.613 63.1464 39.7151 62.9931 39.7151 62.6917C39.7151 62.3904 39.5969 62.229 39.3632 62.229H39.1053V63.1491L39.108 63.1464Z" fill="#FFD111"/>
<path d="M41.6602 66.1192V64.922H41.8643V62.3286H41.6602V61.1287H43.0946V62.3286H42.92V63.0926H43.554V62.3286H43.3794V61.1287H44.8192V62.3286H44.6097V64.922H44.8192V66.1192H43.3794V64.922H43.554V64.1069H42.92V64.922H43.0946V66.1192H41.6602Z" fill="#FFD111"/>
<path d="M45.6707 62.3285V61.1367H47.0675V62.3339H46.9332V64.1714C46.9332 64.4324 46.952 64.6261 46.9762 64.7471C47.0192 64.9408 47.0997 65.0377 47.2206 65.0377C47.32 65.0377 47.3872 64.9731 47.4248 64.844C47.4651 64.7148 47.4812 64.4754 47.4812 64.1337V62.3339H47.3415V61.1367H48.373V62.342H48.1528V64.271C48.1528 65.5596 47.7794 66.2053 47.0272 66.2053C46.6458 66.2053 46.3637 66.0466 46.1784 65.7318C45.9769 65.4009 45.8748 64.8709 45.8748 64.1391V62.3339H45.668L45.6707 62.3285ZM46.9762 66.6115V66.6061C47.132 66.6061 47.2582 66.6492 47.3576 66.7272C47.4543 66.8106 47.5081 66.9075 47.5081 67.0339C47.5081 67.1604 47.4597 67.2572 47.3684 67.3406C47.2717 67.4267 47.1427 67.467 46.9762 67.467C46.6162 67.467 46.4362 67.3245 46.4362 67.0393C46.4362 66.9209 46.49 66.8214 46.5894 66.7353C46.6914 66.6546 46.8204 66.6115 46.9735 66.6115H46.9762Z" fill="#FFD111"/>
<path d="M49.2617 66.1192V64.922H49.5035V62.3286H49.2617V61.1287H50.5538L51.545 63.7356H51.5504V62.3286H51.3248V61.1287H52.4261V62.3286H52.187V66.2026H51.2871L50.1482 63.1652H50.1374V64.9193H50.3819V66.1165H49.2617V66.1192Z" fill="#FFD111"/>
<path d="M55.0801 64.4003V63.4533H56.2996V63.8299C56.2996 64.5805 56.1653 65.1751 55.9021 65.6002C55.6549 66.001 55.3326 66.2028 54.9269 66.2028C54.3225 66.2028 53.8847 65.88 53.608 65.237C53.4146 64.7877 53.3125 64.2496 53.3125 63.6228C53.3125 62.8641 53.4522 62.2453 53.7208 61.7584C53.9948 61.2714 54.3387 61.0266 54.7577 61.0266C55.0881 61.0266 55.3541 61.1773 55.5475 61.4759V61.1288H56.2029V62.8722H55.5475C55.4185 62.4417 55.2359 62.2265 54.9968 62.2265C54.8087 62.2265 54.6798 62.3503 54.5992 62.6005C54.5321 62.8157 54.5025 63.1789 54.5025 63.6873C54.5025 64.1582 54.5401 64.4998 54.6207 64.715C54.6986 64.9276 54.8249 65.0352 54.9995 65.0352C55.2439 65.0352 55.3648 64.8227 55.3648 64.4003H55.0854H55.0801Z" fill="#FFD111"/>
<path d="M59.1516 66.1191V64.5183H59.7641C59.8474 64.9515 59.9843 65.1721 60.1831 65.1721C60.3282 65.1721 60.398 65.0645 60.398 64.8493C60.398 64.7578 60.3766 64.6663 60.3309 64.5802C60.2825 64.4941 60.1402 64.3542 59.9011 64.1632C59.6647 63.9722 59.4901 63.7785 59.3826 63.5821C59.2188 63.2808 59.1328 62.931 59.1328 62.5436C59.1328 62.0997 59.2134 61.7446 59.3692 61.4702C59.5277 61.2012 59.7318 61.064 59.987 61.064C60.2288 61.064 60.4276 61.1877 60.5914 61.4379V61.1285H61.2066V62.5517H60.5914L60.5807 62.4845C60.5189 62.1347 60.39 61.9625 60.1992 61.9625C60.0649 61.9625 59.9978 62.0648 59.9978 62.2692C59.9978 62.358 60.0139 62.428 60.0461 62.4845C60.073 62.5383 60.2261 62.6808 60.4947 62.9149C60.7634 63.1463 60.9595 63.3696 61.083 63.5902C61.2388 63.8834 61.3194 64.2412 61.3194 64.6744C61.3194 65.1075 61.2335 65.4653 61.0615 65.7532C60.8923 66.0411 60.6774 66.1863 60.4222 66.1863C60.1831 66.1863 59.9629 66.0572 59.7695 65.7935V66.1191H59.157H59.1516Z" fill="#FFD111"/>
<path d="M62.1602 62.3285V61.1367H63.557V62.3339H63.4227V64.1714C63.4227 64.4324 63.4388 64.6261 63.4657 64.7471C63.5033 64.9408 63.5865 65.0377 63.7074 65.0377C63.8095 65.0377 63.8767 64.9731 63.9116 64.844C63.9492 64.7148 63.968 64.4754 63.968 64.1337V62.3339H63.8337V61.1367H64.6423V61.9815C64.7014 61.9922 64.7578 61.9707 64.8088 61.9169C64.8545 61.8631 64.8867 61.7932 64.8921 61.7044H64.8115V61.0022H65.2225V61.6936C65.2225 61.9384 65.1876 62.1187 65.115 62.2397C65.021 62.3931 64.8679 62.4684 64.6423 62.4711V64.2736C64.6423 65.5623 64.2716 66.208 63.5194 66.208C63.1353 66.208 62.8505 66.0492 62.6705 65.7345C62.4664 65.4036 62.367 64.8736 62.367 64.1418V62.3366H62.1602V62.3285ZM63.5033 66.5389V66.5335C63.6591 66.5335 63.7853 66.5739 63.8874 66.6546C63.9868 66.7326 64.0352 66.8348 64.0352 66.9559C64.0352 67.0769 63.9868 67.1846 63.8928 67.268C63.7988 67.3487 63.6698 67.3917 63.5006 67.3917C63.1433 67.3917 62.9633 67.2518 62.9633 66.9693C62.9633 66.851 63.0117 66.7487 63.1191 66.6653C63.2185 66.5846 63.3475 66.5416 63.5006 66.5416L63.5033 66.5389Z" fill="#FFD111"/>
<path d="M67.7305 63.0496H69.9816V64.2145H67.7305V63.0496Z" fill="#223C73"/>
<path d="M72.8477 66.1192V64.922H73.0572V62.3286H72.8477V61.1287H74.3278V62.3286H74.1129V64.922H74.3278V66.1192H72.8477ZM74.6125 66.1192V64.922H74.7388L74.1424 63.5015L74.8382 62.3286H74.6125V61.1287H75.9557V62.3286H75.7461L75.1901 63.2648L75.8831 64.922H76.0201V66.1192H74.6125Z" fill="#223C73"/>
<path d="M76.8359 66.1192V64.922H77.0428V62.3286H76.8359V61.1287H78.2704V62.3286H78.0985V63.0926H78.7298V62.3286H78.5578V61.1287H79.9923V62.3286H79.7828V64.922H79.9923V66.1192H78.5578V64.922H78.7298V64.1069H78.0985V64.922H78.2704V66.1192H76.8359Z" fill="#223C73"/>
<path d="M80.7773 66.1192V64.922H80.9788L81.4946 62.3286H81.2743V61.1287H83.2326V62.3286H83.0123L83.5361 64.922H83.7376V66.1192H82.3112V65.0269H82.5503L82.4428 64.4001H81.7498L81.6343 65.0269H81.8572V66.1192H80.7773ZM81.8572 63.7759H82.3434L82.1151 62.3958H82.1044L81.8572 63.7759Z" fill="#223C73"/>
<path d="M84.4883 66.1192V64.922H84.7381V62.3286H84.4883V61.1287H86.049V62.3286H85.7965V64.922H86.049V66.1192H84.4883Z" fill="#223C73"/>
<path d="M88.8242 66.1192V64.922H89.0848V62.3286H88.8242V61.1287H90.6616C91.0699 61.1287 91.3735 61.2874 91.583 61.5968C91.7657 61.8766 91.857 62.2451 91.857 62.7025C91.857 63.0953 91.7872 63.4262 91.6475 63.6925C91.4621 64.0584 91.1693 64.236 90.7718 64.236H90.1432V64.9193H90.4172V66.1165H88.8242V66.1192ZM90.1432 63.1464H90.4306C90.6482 63.1464 90.7556 62.9931 90.7556 62.6917C90.7556 62.3904 90.6374 62.229 90.401 62.229H90.1432V63.1491V63.1464Z" fill="#223C73"/>
<path d="M92.6914 66.1192V64.922H92.9009V62.3286H92.6914V61.1287H94.1285V62.3286H93.9566V63.0926H94.5852V62.3286H94.4133V61.1287H95.8478V62.3286H95.6382V64.922H95.8478V66.1192H94.4133V64.922H94.5852V64.1069H93.9566V64.922H94.1285V66.1192H92.6914Z" fill="#223C73"/>
<path d="M96.7891 63.6173C96.7891 62.9501 96.9126 62.3717 97.1571 61.8794C97.4418 61.3144 97.834 61.0293 98.3229 61.0293C98.8118 61.0293 99.204 61.3144 99.4887 61.8794C99.7386 62.3717 99.8621 62.9501 99.8621 63.6173C99.8621 64.2845 99.7386 64.8603 99.4887 65.3499C99.204 65.9203 98.8145 66.2054 98.3229 66.2054C97.8313 66.2054 97.4418 65.9203 97.1571 65.3499C96.9099 64.8603 96.7891 64.2845 96.7891 63.6173ZM97.9737 63.6173C97.9737 64.1177 97.9979 64.4675 98.0409 64.6746C98.0919 64.9141 98.1913 65.0352 98.3229 65.0352C98.4545 65.0352 98.5539 64.9141 98.6104 64.6746C98.656 64.4675 98.6775 64.1177 98.6775 63.6173C98.6775 63.1169 98.656 62.7645 98.6104 62.5574C98.5513 62.3152 98.4599 62.1969 98.3229 62.1969C98.1859 62.1969 98.0919 62.3152 98.0409 62.5574C97.9952 62.7645 97.9737 63.1169 97.9737 63.6173ZM98.0919 60.7145L98.3498 59.8159H98.9837L98.4169 60.7145H98.0946H98.0919Z" fill="#223C73"/>
<path d="M100.761 66.1192V64.922H101.005V62.3286H100.761V61.1287H102.05L103.038 63.7356H103.049V62.3286H102.824V61.1287H103.92V62.3286H103.683V66.2026H102.783L101.644 63.1652H101.631V64.9193H101.878V66.1165H100.758L100.761 66.1192Z" fill="#223C73"/>
<path d="M106.579 64.4003V63.4533H107.801V63.8299C107.801 64.5805 107.667 65.1751 107.403 65.6002C107.156 66.001 106.831 66.2028 106.425 66.2028C105.824 66.2028 105.383 65.88 105.107 65.237C104.91 64.7877 104.816 64.2496 104.816 63.6228C104.816 62.8641 104.951 62.2453 105.222 61.7584C105.493 61.2714 105.837 61.0266 106.254 61.0266C106.587 61.0266 106.853 61.1773 107.049 61.4759V61.1288H107.701V62.8722H107.049C106.92 62.4417 106.734 62.2265 106.498 62.2265C106.307 62.2265 106.173 62.3503 106.1 62.6005C106.031 62.8157 105.998 63.1789 105.998 63.6873C105.998 64.1582 106.039 64.4998 106.114 64.715C106.189 64.9276 106.321 65.0352 106.495 65.0352C106.74 65.0352 106.863 64.8227 106.863 64.4003H106.581H106.579Z" fill="#223C73"/>
<path d="M5.57422 66.1192V64.922H5.78107V62.3286H5.57422V61.1287H7.01137V62.3286H6.83676V63.0926H7.46803V62.3286H7.29611V61.1287H8.73326V62.3286H8.52104V64.922H8.73326V66.1192H7.29611V64.922H7.46803V64.1069H6.83676V64.922H7.01137V66.1192H5.57422Z" fill="#C52033"/>
<path d="M1.53393 66.1192V64.922H1.77838V62.3286H1.53393V61.1287H2.82602L3.81457 63.7356H3.82531V62.3286H3.59697V61.1287H4.69566V62.3286H4.46195V66.2026H3.55937L2.41771 63.1652H2.40696V64.9193H2.65141V66.1165H1.53125L1.53393 66.1192Z" fill="#C52033"/>
<path d="M162.983 23.4467L160.918 22.357L158.857 23.4359L159.256 21.1441L157.594 19.5113L159.896 19.1855L160.936 17.1001L161.962 19.1891L164.264 19.5294L162.591 21.1514L162.983 23.4467Z" fill="#F7951D"/>
<path d="M113.75 20.2717H154.258" stroke="#EB2026" stroke-width="0.37" stroke-miterlimit="10"/>
<path d="M167.594 20.2717H208.106" stroke="#EB2026" stroke-width="0.37" stroke-miterlimit="10"/>
<path d="M119.83 26.5242V28.6783H118.179V37.2914H115.394V28.6783H113.75V26.5242H119.83Z" fill="#C42032"/>
<path d="M120.465 26.5244H122.433C123.746 26.5244 124.635 26.5751 125.099 26.6764C125.563 26.7778 125.941 27.0385 126.236 27.4584C126.527 27.8784 126.675 28.5446 126.675 29.4642C126.675 30.3005 126.57 30.8653 126.365 31.1549C126.157 31.4446 125.75 31.6147 125.142 31.6726C125.693 31.8102 126.063 31.9949 126.254 32.223C126.445 32.4547 126.56 32.6647 126.606 32.8565C126.653 33.0484 126.675 33.5806 126.675 34.4495V37.288H124.091V33.711C124.091 33.1353 124.045 32.7769 123.955 32.6393C123.865 32.5017 123.627 32.4329 123.246 32.4329V37.288H120.465V26.5208V26.5244ZM123.246 28.3672V30.7603C123.559 30.7603 123.778 30.7168 123.904 30.63C124.03 30.5431 124.091 30.2643 124.091 29.79V29.1999C124.091 28.8596 124.03 28.6351 123.908 28.5301C123.786 28.4251 123.566 28.3708 123.242 28.3708L123.246 28.3672Z" fill="#C42032"/>
<path d="M134.08 27.6103V33.7216C134.08 34.5362 134.055 35.1119 134.001 35.4413C133.947 35.7708 133.792 36.1111 133.533 36.4587C133.274 36.8062 132.932 37.0705 132.504 37.2515C132.079 37.4326 131.579 37.5195 131 37.5195C130.36 37.5195 129.798 37.4145 129.309 37.2009C128.82 36.9872 128.453 36.7121 128.212 36.3682C127.971 36.0278 127.827 35.6658 127.784 35.2893C127.74 34.9091 127.719 34.1126 127.719 32.8998V26.5278H130.5V34.6014C130.5 35.072 130.525 35.3725 130.575 35.5029C130.626 35.6332 130.73 35.6984 130.881 35.6984C131.058 35.6984 131.173 35.626 131.223 35.4811C131.273 35.3363 131.299 34.996 131.299 34.4602V26.5278H134.08V26.7486C134.22 26.6219 134.303 26.4662 134.332 26.2816H133.882V24.8044H135.454L135.461 25.1375C135.461 25.6444 135.418 26.0607 135.332 26.3902C135.245 26.7197 135.076 26.9948 134.821 27.212C134.612 27.3931 134.368 27.527 134.08 27.6103Z" fill="#C42032"/>
<path d="M140.939 27.4292C141.216 27.8057 141.382 28.2149 141.436 28.6602C141.49 29.1019 141.515 29.8803 141.515 30.9881V32.8309C141.515 33.9134 141.49 34.6774 141.439 35.1299C141.389 35.5788 141.23 35.9916 140.964 36.3645C140.698 36.7374 140.338 37.0234 139.885 37.2225C139.432 37.4217 138.903 37.523 138.298 37.523C137.694 37.523 137.212 37.4289 136.755 37.2406C136.298 37.0524 135.931 36.77 135.654 36.3934C135.377 36.0169 135.211 35.6078 135.157 35.1625C135.103 34.7208 135.078 33.9424 135.078 32.8345V30.9917C135.078 29.9092 135.103 29.1453 135.154 28.6928C135.204 28.2438 135.362 27.8311 135.629 27.4582C135.895 27.0853 136.255 26.7993 136.708 26.6001C137.161 26.401 137.69 26.2996 138.295 26.2996C138.899 26.2996 139.381 26.3938 139.842 26.5784C140.022 26.6581 140.191 26.7522 140.349 26.8572C140.583 26.7124 140.716 26.5169 140.752 26.2779H140.302V24.8008H141.875L141.882 25.1339C141.882 25.6407 141.839 26.0571 141.752 26.3865C141.666 26.716 141.497 26.9911 141.241 27.2084C141.148 27.2916 141.047 27.3677 140.939 27.4292ZM138.104 24.4822L138.996 25.8652H137.964L136.298 24.4822H138.1H138.104ZM138.734 29.2901C138.734 28.7905 138.705 28.4683 138.651 28.3307C138.597 28.1895 138.482 28.1207 138.309 28.1207C138.165 28.1207 138.054 28.1787 137.974 28.2909C137.899 28.4031 137.859 28.7362 137.859 29.2901V34.3189C137.859 34.9453 137.884 35.329 137.935 35.4775C137.985 35.6223 138.104 35.6983 138.287 35.6983C138.471 35.6983 138.597 35.6151 138.651 35.4449C138.705 35.2747 138.73 34.8765 138.73 34.2429V29.2938L138.734 29.2901Z" fill="#C42032"/>
<path d="M148.764 26.5244V37.2916H146.325L144.879 32.3968V37.2916H142.551V26.5244H144.879L146.436 31.3722V26.5244H148.764Z" fill="#C42032"/>
<path d="M156.266 30.4886H153.485V29.5111C153.485 28.8956 153.46 28.5082 153.406 28.3525C153.352 28.1968 153.226 28.1208 153.028 28.1208C152.856 28.1208 152.741 28.186 152.679 28.3199C152.618 28.4539 152.586 28.7942 152.586 29.3445V34.5109C152.586 34.996 152.618 35.311 152.679 35.4667C152.741 35.6188 152.863 35.6948 153.05 35.6948C153.251 35.6948 153.392 35.6079 153.464 35.4341C153.536 35.2603 153.572 34.9236 153.572 34.424V33.146H153.01V31.5095H156.27V37.2878H154.518L154.259 36.5166C154.068 36.8497 153.831 37.0995 153.543 37.2661C153.255 37.4326 152.913 37.5159 152.521 37.5159C152.053 37.5159 151.618 37.4 151.208 37.1719C150.801 36.9438 150.492 36.6614 150.28 36.3247C150.067 35.988 149.934 35.6332 149.884 35.2639C149.833 34.8947 149.805 34.3371 149.805 33.5985V30.3981C149.805 29.3699 149.859 28.624 149.97 28.157C150.082 27.69 150.395 27.2664 150.92 26.8754C151.442 26.488 152.118 26.2925 152.946 26.2925C153.773 26.2925 154.435 26.4626 154.975 26.7993C155.511 27.136 155.864 27.5379 156.025 28.0013C156.187 28.4647 156.27 29.1382 156.27 30.0179V30.485L156.266 30.4886Z" fill="#C42032"/>
<path d="M160.778 31.9044H160.234V30.7603H160.778V26.5244H162.861C164.203 26.5244 165.113 26.586 165.588 26.7091C166.063 26.8322 166.423 27.0385 166.667 27.3209C166.916 27.6033 167.067 27.9219 167.131 28.2695C167.193 28.617 167.225 29.3013 167.225 30.3223V34.0911C167.225 35.0578 167.178 35.7022 167.088 36.0281C166.998 36.3539 166.84 36.6074 166.617 36.792C166.394 36.9766 166.113 37.1034 165.786 37.1794C165.455 37.2518 164.958 37.288 164.293 37.288H160.785V31.9008L160.778 31.9044ZM163.559 31.9044V35.4488C163.958 35.4488 164.206 35.3692 164.3 35.2062C164.394 35.0433 164.44 34.6053 164.44 33.8848V29.7032C164.44 29.2144 164.426 28.903 164.394 28.7655C164.361 28.6279 164.293 28.5265 164.185 28.4614C164.077 28.3962 163.868 28.3636 163.559 28.3636V30.7567H163.994V31.9008H163.559V31.9044Z" fill="#C42032"/>
<path d="M173.061 26.5244L174.655 37.2916H171.805L171.665 35.3547H170.668L170.503 37.2916H167.621L169.035 26.5244H173.061ZM171.917 38.1098V39.5327H170.438V38.1098H171.917ZM171.586 33.4467C171.446 32.2266 171.305 30.7241 171.161 28.932C170.881 30.9884 170.704 32.4945 170.633 33.4467H171.582H171.586Z" fill="#C42032"/>
<path d="M177.914 26.5244V37.2916H175.133V26.5244H177.914Z" fill="#C42032"/>
<path d="M188.784 26.5244V37.2916H186.003V32.7697H185.172V37.2916H182.391V26.5244H185.172V30.3766H186.003V26.5244H188.784Z" fill="#C42032"/>
<path d="M196.261 32.8311C196.261 33.9136 196.236 34.6775 196.185 35.1301C196.135 35.579 195.977 35.9917 195.71 36.3646C195.444 36.7376 195.084 37.0236 194.631 37.2227C194.178 37.4218 193.649 37.5232 193.044 37.5232C192.44 37.5232 191.958 37.4291 191.501 37.2408C191.044 37.0525 190.677 36.7701 190.4 36.3936C190.123 36.0171 189.957 35.608 189.903 35.1627C189.849 34.721 189.824 33.9426 189.824 32.8347V30.9919C189.824 29.9094 189.849 29.1455 189.9 28.6929C189.95 28.244 190.108 27.8313 190.375 27.4583C190.641 27.0854 191.001 26.7994 191.454 26.6003C191.907 26.4012 192.436 26.2998 193.041 26.2998C193.645 26.2998 194.127 26.3939 194.584 26.5822C195.041 26.7705 195.408 27.0529 195.685 27.4294C195.962 27.8059 196.128 28.215 196.182 28.6603C196.236 29.102 196.261 29.8804 196.261 30.9883V32.8311ZM193.782 38.1097V39.5325H192.303V38.1097H193.782ZM193.476 29.2903C193.476 28.7907 193.447 28.4685 193.393 28.3309C193.339 28.1897 193.224 28.1209 193.052 28.1209C192.908 28.1209 192.796 28.1788 192.717 28.2911C192.641 28.4033 192.602 28.7364 192.602 29.2903V34.3191C192.602 34.9454 192.627 35.3292 192.677 35.4776C192.728 35.6225 192.846 35.6985 193.03 35.6985C193.213 35.6985 193.339 35.6152 193.393 35.4451C193.447 35.2749 193.472 34.8766 193.472 34.2431V29.2939L193.476 29.2903Z" fill="#C42032"/>
<path d="M203.796 31.22H201.015V29.3446C201.015 28.7979 200.986 28.4576 200.925 28.3236C200.864 28.1897 200.734 28.1209 200.533 28.1209C200.303 28.1209 200.159 28.2042 200.098 28.3671C200.036 28.53 200.004 28.8848 200.004 29.4315V34.4313C200.004 34.9527 200.036 35.2966 200.098 35.4559C200.159 35.6152 200.299 35.6949 200.515 35.6949C200.731 35.6949 200.857 35.6152 200.922 35.4559C200.986 35.2966 201.019 34.9201 201.019 34.3336V32.9832H203.8V33.4031C203.8 34.5146 203.721 35.3039 203.566 35.7709C203.411 36.2379 203.062 36.6434 202.53 36.9946C201.997 37.3458 201.335 37.5196 200.551 37.5196C199.767 37.5196 199.065 37.3711 198.536 37.0743C198.007 36.7774 197.658 36.3646 197.486 35.8397C197.313 35.3147 197.227 34.5255 197.227 33.4683V30.3221C197.227 29.5473 197.252 28.9645 197.306 28.5771C197.36 28.1897 197.514 27.8168 197.777 27.4547C198.04 27.0963 198.403 26.8139 198.867 26.6075C199.331 26.4012 199.867 26.2998 200.468 26.2998C201.289 26.2998 201.965 26.4591 202.497 26.7777C203.03 27.0963 203.383 27.4946 203.548 27.9725C203.714 28.4504 203.8 29.1889 203.8 30.1954V31.22H203.796Z" fill="#C42032"/>
<path d="M214.648 31.22H211.867V29.3446C211.867 28.7979 211.838 28.4576 211.777 28.3236C211.719 28.1897 211.586 28.1209 211.385 28.1209C211.154 28.1209 211.01 28.2042 210.949 28.3671C210.888 28.53 210.856 28.8848 210.856 29.4315V34.4313C210.856 34.9527 210.888 35.2966 210.949 35.4559C211.01 35.6152 211.151 35.6949 211.367 35.6949C211.582 35.6949 211.708 35.6152 211.773 35.4559C211.838 35.2966 211.87 34.9201 211.87 34.3336V32.9832H214.651V33.4031C214.651 34.5146 214.572 35.3039 214.418 35.7709C214.263 36.2379 213.914 36.6434 213.381 36.9946C212.849 37.3458 212.187 37.5196 211.403 37.5196C210.618 37.5196 209.917 37.3711 209.388 37.0743C208.859 36.7774 208.51 36.3646 208.337 35.8397C208.164 35.3147 208.078 34.5255 208.078 33.4683V30.3221C208.078 29.5473 208.103 28.9645 208.157 28.5771C208.211 28.1897 208.366 27.8168 208.629 27.4547C208.891 27.0963 209.255 26.8139 209.719 26.6075C210.183 26.4012 210.719 26.2998 211.32 26.2998C212.14 26.2998 212.817 26.4591 213.349 26.7777C213.881 27.0963 214.234 27.4946 214.4 27.9725C214.569 28.4504 214.651 29.1889 214.651 30.1954V31.22H214.648Z" fill="#C42032"/>
<path d="M222.003 32.8311C222.003 33.9136 221.978 34.6776 221.927 35.1301C221.877 35.579 221.719 35.9918 221.453 36.3647C221.186 36.7376 220.826 37.0236 220.373 37.2227C219.92 37.4219 219.391 37.5232 218.787 37.5232C218.182 37.5232 217.7 37.4291 217.243 37.2408C216.786 37.0526 216.419 36.7702 216.142 36.3936C215.865 36.0171 215.7 35.608 215.646 35.1627C215.592 34.721 215.566 33.9426 215.566 32.8347V30.9919C215.566 29.9094 215.592 29.1455 215.642 28.693C215.692 28.244 215.851 27.8313 216.117 27.4584C216.383 27.0855 216.743 26.7995 217.196 26.6003C217.65 26.4012 218.178 26.2998 218.783 26.2998C219.387 26.2998 219.869 26.394 220.326 26.5822C220.783 26.7705 221.15 27.0529 221.427 27.4294C221.704 27.8059 221.87 28.2151 221.924 28.6604C221.978 29.1021 222.003 29.8805 222.003 30.9883V32.8311ZM218.819 25.3223L218.297 26.0681H217.042L218.193 24.457H219.456L220.531 26.0681H219.315L218.819 25.3223ZM219.222 29.2939C219.222 28.7943 219.193 28.4721 219.139 28.3345C219.085 28.1933 218.97 28.1245 218.797 28.1245C218.653 28.1245 218.542 28.1825 218.463 28.2947C218.387 28.4069 218.348 28.74 218.348 29.2939V34.3227C218.348 34.9491 218.373 35.3329 218.423 35.4813C218.473 35.6261 218.592 35.7021 218.776 35.7021C218.959 35.7021 219.085 35.6189 219.139 35.4487C219.193 35.2785 219.218 34.8803 219.218 34.2467V29.2976L219.222 29.2939Z" fill="#C42032"/>
<path d="M229.253 26.5244V37.2916H226.813L225.367 32.3968V37.2916H223.039V26.5244H225.367L226.928 31.3722V26.5244H229.256H229.253Z" fill="#C42032"/>
<path d="M236.755 30.4886H233.974V29.5111C233.974 28.8956 233.948 28.5082 233.894 28.3525C233.84 28.1968 233.715 28.1208 233.517 28.1208C233.344 28.1208 233.229 28.186 233.168 28.3199C233.106 28.4539 233.074 28.7942 233.074 29.3445V34.5109C233.074 34.996 233.106 35.311 233.168 35.4667C233.229 35.6188 233.351 35.6948 233.538 35.6948C233.74 35.6948 233.88 35.6079 233.952 35.4341C234.024 35.2603 234.06 34.9236 234.06 34.424V33.146H233.499V31.5095H236.758V37.2878H235.006L234.747 36.5166C234.556 36.8497 234.319 37.0995 234.031 37.2661C233.743 37.4326 233.402 37.5159 233.009 37.5159C232.542 37.5159 232.106 37.4 231.696 37.1719C231.29 36.9438 230.98 36.6614 230.768 36.3247C230.556 35.988 230.422 35.6332 230.372 35.2639C230.318 34.8947 230.293 34.3371 230.293 33.5985V30.3981C230.293 29.3699 230.347 28.624 230.458 28.157C230.57 27.69 230.887 27.2664 231.408 26.8754C231.93 26.488 232.606 26.2925 233.434 26.2925C234.261 26.2925 234.923 26.4626 235.463 26.7993C235.999 27.136 236.352 27.5379 236.514 28.0013C236.676 28.4647 236.758 29.1382 236.758 30.0179V30.485L236.755 30.4886Z" fill="#C42032"/>
<path d="M247.401 26.5242V37.2914H244.962L243.515 32.3965V37.2914H241.188V26.5242H243.515L245.073 31.3719V26.5242H247.401Z" fill="#C42032"/>
<path d="M254.903 30.4886H252.122V29.5111C252.122 28.8956 252.097 28.5082 252.043 28.3525C251.989 28.1968 251.863 28.1208 251.665 28.1208C251.492 28.1208 251.377 28.186 251.316 28.3199C251.255 28.4539 251.223 28.7942 251.223 29.3445V34.5109C251.223 34.996 251.255 35.311 251.316 35.4667C251.377 35.6188 251.5 35.6948 251.687 35.6948C251.888 35.6948 252.028 35.6079 252.1 35.4341C252.172 35.2603 252.208 34.9236 252.208 34.424V33.146H251.647V31.5095H254.907V37.2878H253.155L252.896 36.5166C252.705 36.8497 252.467 37.0995 252.18 37.2661C251.892 37.4326 251.55 37.5159 251.158 37.5159C250.69 37.5159 250.255 37.4 249.845 37.1719C249.438 36.9438 249.129 36.6614 248.916 36.3247C248.704 35.988 248.571 35.6332 248.521 35.2639C248.47 34.8947 248.441 34.3371 248.441 33.5985V30.3981C248.441 29.3699 248.495 28.624 248.607 28.157C248.718 27.69 249.031 27.2664 249.557 26.8754C250.078 26.488 250.755 26.2925 251.582 26.2925C252.41 26.2925 253.072 26.4626 253.612 26.7993C254.148 27.136 254.5 27.5379 254.662 28.0013C254.824 28.4647 254.907 29.1382 254.907 30.0179V30.485L254.903 30.4886Z" fill="#C42032"/>
<path d="M262.378 26.5244V37.2916H259.597V32.7697H258.766V37.2916H255.984V26.5244H258.766V30.3766H259.597V26.5244H262.378Z" fill="#C42032"/>
<path d="M263.492 26.5243H268.133V28.6785H266.277V30.7204H268.015V32.7696H266.277V35.1374H268.321V37.2915H263.496V26.5243H263.492ZM265.939 25.3223L265.417 26.0681H264.161L265.313 24.457H266.576L267.651 26.0681H266.435L265.939 25.3223ZM266.648 38.1097V39.5326H265.169V38.1097H266.648Z" fill="#C42032"/>
<path d="M278.081 26.5242V28.6783H276.429V37.2914H273.648V28.6783H272.004V26.5242H278.084H278.081Z" fill="#C42032"/>
<path d="M285.112 26.5244V37.2916H282.331V32.7697H281.5V37.2916H278.719V26.5244H281.5V30.3766H282.331V26.5244H285.112Z" fill="#C42032"/>
<path d="M292.589 32.8311C292.589 33.9136 292.564 34.6776 292.513 35.1301C292.463 35.579 292.305 35.9918 292.038 36.3647C291.772 36.7376 291.412 37.0236 290.959 37.2227C290.506 37.4219 289.977 37.5232 289.372 37.5232C288.768 37.5232 288.286 37.4291 287.829 37.2408C287.372 37.0526 287.005 36.7702 286.728 36.3936C286.451 36.0171 286.285 35.608 286.231 35.1627C286.178 34.721 286.152 33.9426 286.152 32.8347V30.9919C286.152 29.9094 286.178 29.1455 286.228 28.693C286.278 28.244 286.437 27.8313 286.703 27.4584C286.969 27.0855 287.329 26.7995 287.782 26.6003C288.236 26.4012 288.764 26.2998 289.369 26.2998C289.973 26.2998 290.455 26.394 290.912 26.5822C291.369 26.7705 291.736 27.0529 292.013 27.4294C292.29 27.8059 292.456 28.2151 292.51 28.6604C292.564 29.1021 292.589 29.8805 292.589 30.9883V32.8311ZM289.405 25.3223L288.883 26.0681H287.627L288.779 24.457H290.042L291.117 26.0681H289.901L289.405 25.3223ZM289.808 29.2939C289.808 28.7943 289.779 28.4721 289.725 28.3345C289.671 28.1933 289.556 28.1245 289.383 28.1245C289.239 28.1245 289.128 28.1825 289.049 28.2947C288.973 28.4069 288.933 28.74 288.933 29.2939V34.3227C288.933 34.9491 288.959 35.3329 289.009 35.4813C289.059 35.6261 289.178 35.7021 289.362 35.7021C289.545 35.7021 289.671 35.6189 289.725 35.4487C289.779 35.2785 289.804 34.8803 289.804 34.2467V29.2976L289.808 29.2939Z" fill="#C42032"/>
<path d="M299.835 26.5244V37.2916H297.395L295.949 32.3968V37.2916H293.621V26.5244H295.949L297.507 31.3722V26.5244H299.835Z" fill="#C42032"/>
<path d="M307.337 30.4886H304.556V29.5111C304.556 28.8956 304.53 28.5082 304.476 28.3525C304.423 28.1968 304.297 28.1208 304.099 28.1208C303.926 28.1208 303.811 28.186 303.75 28.3199C303.689 28.4539 303.656 28.7942 303.656 29.3445V34.5109C303.656 34.996 303.685 35.311 303.75 35.4667C303.811 35.6188 303.933 35.6948 304.12 35.6948C304.322 35.6948 304.462 35.6079 304.534 35.4341C304.606 35.2603 304.642 34.9236 304.642 34.424V33.146H304.081V31.5095H307.34V37.2878H305.588L305.329 36.5166C305.138 36.8497 304.901 37.0995 304.613 37.2661C304.325 37.4326 303.984 37.5159 303.591 37.5159C303.124 37.5159 302.688 37.4 302.278 37.1719C301.872 36.9438 301.562 36.6614 301.35 36.3247C301.138 35.988 301.008 35.6332 300.954 35.2639C300.9 34.8947 300.875 34.3371 300.875 33.5985V30.3981C300.875 29.3699 300.929 28.624 301.041 28.157C301.152 27.69 301.465 27.2664 301.99 26.8754C302.512 26.488 303.188 26.2925 304.016 26.2925C304.843 26.2925 305.509 26.4626 306.045 26.7993C306.581 27.136 306.934 27.5379 307.096 28.0013C307.258 28.4647 307.34 29.1382 307.34 30.0179V30.485L307.337 30.4886Z" fill="#C42032"/>
<path d="M317.374 26.5244V28.6786H315.722V37.2916H312.941V28.6786H311.297V26.5244H317.377H317.374Z" fill="#C42032"/>
<path d="M320.793 26.5244V37.2916H318.012V26.5244H320.793Z" fill="#C42032"/>
<path d="M328.12 26.5244V37.2916H325.68L324.234 32.3968V37.2916H321.906V26.5244H324.234L325.792 31.3722V26.5244H328.12Z" fill="#C42032"/>
<path d="M339.203 26.5244L337.789 37.2916H333.566L331.961 26.5244H334.897C335.235 29.4896 335.48 31.9985 335.624 34.0477C335.767 31.9768 335.922 30.1376 336.081 28.5265L336.271 26.5244H339.207H339.203Z" fill="#C42032"/>
<path d="M344.487 26.5242L346.081 37.2914H343.231L343.091 35.3545H342.094L341.929 37.2914H339.047L340.461 26.5242H344.487ZM342.238 24.6814L343.13 26.0644H342.098L340.432 24.6814H342.235H342.238ZM343.012 33.4465C342.871 32.2264 342.731 30.7239 342.587 28.9318C342.307 30.9882 342.13 32.4943 342.058 33.4465H343.012Z" fill="#C42032"/>
<path d="M355.514 26.5242V28.6783H353.863V37.2914H351.082V28.6783H349.438V26.5242H355.518H355.514Z" fill="#C42032"/>
<path d="M356.148 26.5244H358.116C359.43 26.5244 360.318 26.5751 360.782 26.6764C361.247 26.7778 361.624 27.0385 361.919 27.4584C362.211 27.8784 362.358 28.5446 362.358 29.4642C362.358 30.3005 362.254 30.8653 362.049 31.1549C361.84 31.4446 361.434 31.6147 360.826 31.6726C361.376 31.8102 361.747 31.9949 361.937 32.223C362.128 32.451 362.243 32.6647 362.29 32.8565C362.337 33.0484 362.358 33.5806 362.358 34.4495V37.288H359.775V33.711C359.775 33.1353 359.728 32.7769 359.638 32.6393C359.548 32.5017 359.311 32.4329 358.93 32.4329V37.288H356.148V26.5208V26.5244ZM358.93 28.3672V30.7603C359.243 30.7603 359.462 30.7168 359.588 30.63C359.714 30.5431 359.775 30.2643 359.775 29.79V29.1999C359.775 28.8596 359.714 28.6351 359.592 28.5301C359.469 28.4251 359.25 28.3708 358.926 28.3708L358.93 28.3672Z" fill="#C42032"/>
<path d="M369.763 26.5244V33.7219C369.763 34.5365 369.738 35.1121 369.684 35.4416C369.63 35.771 369.476 36.1114 369.216 36.4589C368.957 36.8065 368.616 37.0708 368.188 37.2518C367.763 37.4328 367.259 37.5197 366.684 37.5197C366.043 37.5197 365.482 37.4147 364.993 37.2011C364.503 36.9875 364.136 36.7124 363.895 36.3684C363.654 36.0281 363.51 35.666 363.467 35.2895C363.424 34.9094 363.402 34.1129 363.402 32.9V26.528H366.183V34.6016C366.183 35.0723 366.209 35.3728 366.259 35.5031C366.309 35.6335 366.414 35.6986 366.565 35.6986C366.741 35.6986 366.853 35.6262 366.907 35.4814C366.957 35.3366 366.982 34.9963 366.982 34.4604V26.528H369.763V26.5244Z" fill="#C42032"/>
<path d="M376.77 26.5244L374.74 33.396V37.2916H372.164V33.396L370.207 26.5244H372.765C373.164 28.6207 373.391 30.0326 373.438 30.7603C373.593 29.6127 373.852 28.2007 374.211 26.5244H376.77Z" fill="#C42032"/>
<path d="M377.246 26.5242H381.884V28.6784H380.027V30.7203H381.765V32.7695H380.027V35.1372H382.071V37.2914H377.246V26.5242ZM379.189 22.6865L380.081 24.0695H379.049L377.383 22.6865H379.185H379.189ZM379.693 25.3186L379.171 26.0644H377.915L379.067 24.4533H380.329L381.405 26.0644H380.189L379.693 25.3186Z" fill="#C42032"/>
<path d="M389.081 26.5244V37.2916H386.641L385.195 32.3968V37.2916H382.867V26.5244H385.195L386.753 31.3722V26.5244H389.081Z" fill="#C42032"/>
<path d="M399.163 26.5244V28.6786H397.511V37.2916H394.73V28.6786H393.086V26.5244H399.166H399.163Z" fill="#C42032"/>
<path d="M406.194 26.5242V37.2914H403.413V32.7694H402.582V37.2914H399.801V26.5242H402.582V30.3763H403.413V26.5242H406.194Z" fill="#C42032"/>
<path d="M413.663 32.8311C413.663 33.9136 413.638 34.6776 413.588 35.1301C413.537 35.579 413.379 35.9918 413.113 36.3647C412.846 36.7376 412.487 37.0236 412.033 37.2227C411.58 37.4219 411.051 37.5232 410.447 37.5232C409.842 37.5232 409.36 37.4291 408.903 37.2408C408.446 37.0526 408.079 36.7702 407.802 36.3936C407.525 36.0171 407.36 35.608 407.306 35.1627C407.252 34.721 407.227 33.9426 407.227 32.8347V30.9919C407.227 29.9094 407.252 29.1455 407.302 28.693C407.352 28.244 407.511 27.8313 407.777 27.4584C408.043 27.0855 408.403 26.7995 408.856 26.6003C409.31 26.4012 409.839 26.2998 410.443 26.2998C411.015 26.2998 411.53 26.394 411.987 26.5822C412.443 26.7705 412.81 27.0529 413.087 27.4294C413.365 27.8059 413.53 28.2151 413.584 28.6604C413.638 29.1021 413.663 29.8805 413.663 30.9883V32.8311ZM410.479 25.3223L409.957 26.0681H408.702L409.853 24.457H411.116L412.192 26.0681H410.976L410.479 25.3223ZM410.882 29.2939C410.882 28.7943 410.853 28.4721 410.799 28.3345C410.745 28.197 410.63 28.1245 410.457 28.1245C410.314 28.1245 410.202 28.1825 410.123 28.2947C410.047 28.4069 410.008 28.74 410.008 29.2939V34.3227C410.008 34.9491 410.033 35.3329 410.083 35.4813C410.134 35.6297 410.252 35.7021 410.436 35.7021C410.619 35.7021 410.745 35.6189 410.799 35.4487C410.853 35.2785 410.878 34.8803 410.878 34.2467V29.2976L410.882 29.2939Z" fill="#C42032"/>
<path d="M420.917 26.5244V37.2916H418.477L417.031 32.3968V37.2916H414.703V26.5244H417.031L418.589 31.3722V26.5244H420.917Z" fill="#C42032"/>
<path d="M428.415 30.4886H425.634V29.5111C425.634 28.8956 425.609 28.5082 425.555 28.3525C425.501 28.1968 425.375 28.1208 425.177 28.1208C425.004 28.1208 424.889 28.186 424.828 28.3199C424.767 28.4539 424.734 28.7942 424.734 29.3445V34.5109C424.734 34.996 424.767 35.311 424.828 35.4667C424.889 35.6188 425.011 35.6948 425.198 35.6948C425.4 35.6948 425.54 35.6079 425.612 35.4341C425.684 35.2603 425.72 34.9236 425.72 34.424V33.146H425.159V31.5095H428.418V37.2878H426.666L426.407 36.5166C426.217 36.8497 425.979 37.0995 425.691 37.2661C425.403 37.4326 425.062 37.5159 424.67 37.5159C424.202 37.5159 423.766 37.4 423.356 37.1719C422.95 36.9438 422.64 36.6614 422.428 36.3247C422.216 35.988 422.083 35.6332 422.032 35.2639C421.978 34.8947 421.953 34.3371 421.953 33.5985V30.3981C421.953 29.3699 422.007 28.624 422.119 28.157C422.23 27.69 422.543 27.2664 423.068 26.8754C423.59 26.488 424.267 26.2925 425.094 26.2925C425.922 26.2925 426.584 26.4626 427.123 26.7993C427.659 27.136 428.012 27.5379 428.174 28.0013C428.336 28.4647 428.418 29.1382 428.418 30.0179V30.485L428.415 30.4886Z" fill="#C42032"/>
<path d="M439.461 26.5244L438.047 37.2916H433.823L432.219 26.5244H435.155C435.493 29.4896 435.737 31.9985 435.881 34.0477C436.025 31.9768 436.18 30.1376 436.338 28.5265L436.529 26.5244H439.465H439.461Z" fill="#C42032"/>
<path d="M442.715 26.5244V37.2916H439.934V26.5244H442.715Z" fill="#C42032"/>
<path d="M443.836 26.5243H448.474V28.6785H446.617V30.7204H448.355V32.7696H446.617V35.1374H448.661V37.2915H443.836V26.5243ZM446.282 25.3223L445.761 26.0681H444.505L445.656 24.457H446.919L447.995 26.0681H446.779L446.282 25.3223ZM446.988 38.1097V39.5326H445.509V38.1097H446.988Z" fill="#C42032"/>
<path d="M455.065 26.5244V28.6786H453.414V37.2916H450.633V28.6786H448.988V26.5244H455.069H455.065Z" fill="#C42032"/>
<path d="M462.246 31.9514V33.8051H458.738V31.9514H462.246Z" fill="#C42032"/>
<path d="M472.796 26.5244V37.2916H470.015V32.7697H469.184V37.2916H466.402V26.5244H469.184V30.3766H470.015V26.5244H472.796Z" fill="#C42032"/>
<path d="M478.717 26.5242L480.311 37.2914H477.462L477.321 35.3545H476.325L476.159 37.2914H473.277L474.691 26.5242H478.717ZM476.469 24.6814L477.361 26.0644H476.328L474.663 24.6814H476.465H476.469ZM477.242 33.4465C477.102 32.2264 476.962 30.7239 476.818 28.9318C476.537 30.9882 476.361 32.4943 476.289 33.4465H477.242Z" fill="#C42032"/>
<path d="M486.999 26.5244V37.2916H484.559L483.113 32.3968V37.2916H480.785V26.5244H483.113L484.671 31.3722V26.5244H486.999Z" fill="#C42032"/>
<path d="M119.841 41.8713L118.654 50.9225H115.099L113.75 41.8713H116.218C116.502 44.3658 116.707 46.4729 116.83 48.1963C116.952 46.4548 117.078 44.9089 117.215 43.5548L117.377 41.8713H119.845H119.841Z" fill="#F7951D"/>
<path d="M122.581 41.8713V50.9225H120.242V41.8713H122.581Z" fill="#F7951D"/>
<path d="M123.52 41.8713H127.42V43.6816H125.858V45.3977H127.319V47.121H125.858V49.1122H127.574V50.9225H123.52V41.8713Z" fill="#F7951D"/>
<path d="M132.957 41.8713V43.6816H131.568V50.9225H129.229V43.6816H127.848V41.8713H132.96H132.957Z" fill="#F7951D"/>
<path d="M138.712 41.8713V50.9225H136.662L135.446 46.806V50.9225H133.488V41.8713H135.446L136.755 45.948V41.8713H138.712Z" fill="#F7951D"/>
<path d="M143.694 41.8713L145.032 50.9225H142.636L142.521 49.2969H141.683L141.542 50.9225H139.121L140.308 41.8713H143.69H143.694ZM142.456 47.693C142.338 46.6684 142.219 45.4013 142.1 43.8952C141.863 45.6257 141.715 46.8893 141.654 47.693H142.453H142.456Z" fill="#F7951D"/>
<path d="M152.647 41.8713V50.9225H150.604V44.8111L149.787 50.9225H148.337L147.477 44.9523V50.9225H145.434V41.8713H148.463C148.553 42.4144 148.646 43.0552 148.747 43.7938L149.071 46.0964L149.604 41.8713H152.655H152.647Z" fill="#F7951D"/>
<path d="M159.091 46.4333V47.9938H156.141V46.4333H159.091Z" fill="#F7951D"/>
<path d="M168.155 41.8713L166.817 45.9588L168.285 50.9225H165.867L164.925 47.0413V50.9225H162.586V41.8713H164.925V45.3868L165.964 41.8713H168.159H168.155Z" fill="#F7951D"/>
<path d="M174.032 47.1717C174.032 48.0804 174.01 48.7248 173.967 49.105C173.924 49.4815 173.791 49.8291 173.568 50.1404C173.345 50.4518 173.043 50.6944 172.661 50.8609C172.28 51.0274 171.834 51.1107 171.326 51.1107C170.819 51.1107 170.413 51.0311 170.028 50.8718C169.643 50.7125 169.337 50.4771 169.103 50.1585C168.869 49.8399 168.732 49.496 168.686 49.1231C168.642 48.7502 168.617 48.0985 168.617 47.168V45.6185C168.617 44.7098 168.639 44.0653 168.682 43.6852C168.725 43.3086 168.858 42.9611 169.081 42.6497C169.304 42.3384 169.607 42.0958 169.988 41.9293C170.369 41.7627 170.815 41.6794 171.323 41.6794C171.805 41.6794 172.237 41.7591 172.622 41.9184C173.007 42.0777 173.312 42.313 173.546 42.6316C173.78 42.9502 173.917 43.2942 173.964 43.6671C174.007 44.04 174.028 44.6917 174.028 45.6221V47.1717H174.032ZM171.693 44.1993C171.693 43.7793 171.672 43.5078 171.625 43.3919C171.578 43.2761 171.485 43.2145 171.337 43.2145C171.215 43.2145 171.121 43.2616 171.057 43.3557C170.992 43.4498 170.959 43.7322 170.959 44.1957V48.4207C170.959 48.9457 170.981 49.2715 171.024 49.3946C171.067 49.5177 171.164 49.5793 171.323 49.5793C171.481 49.5793 171.585 49.5068 171.629 49.3657C171.672 49.2245 171.697 48.8878 171.697 48.3555V44.1957L171.693 44.1993Z" fill="#F7951D"/>
<path d="M174.902 41.8713H176.557C177.662 41.8713 178.406 41.9147 178.799 42.0016C179.191 42.0885 179.507 42.3057 179.756 42.6569C180 43.0081 180.126 43.5693 180.126 44.3441C180.126 45.05 180.04 45.5207 179.863 45.7633C179.691 46.0058 179.345 46.1507 178.835 46.1977C179.299 46.3136 179.608 46.4693 179.766 46.6611C179.925 46.8567 180.025 47.0341 180.065 47.197C180.105 47.3599 180.123 47.8052 180.123 48.5365V50.9224H177.949V47.9138C177.949 47.4287 177.91 47.1282 177.834 47.0123C177.759 46.8965 177.561 46.8386 177.237 46.8386V50.9188H174.898V41.8677L174.902 41.8713ZM177.241 43.4208V45.4338C177.503 45.4338 177.687 45.3976 177.795 45.3252C177.899 45.2528 177.953 45.0175 177.953 44.6192V44.1232C177.953 43.8372 177.903 43.6489 177.802 43.5584C177.701 43.4679 177.514 43.4245 177.244 43.4245L177.241 43.4208Z" fill="#F7951D"/>
<path d="M181.031 41.8713H184.931V43.6816H183.37V45.3977H184.831V47.121H183.37V49.1122H185.086V50.9225H181.031V41.8713Z" fill="#F7951D"/>
<path d="M189.799 41.8713L191.138 50.9225H188.742L188.627 49.2969H187.788L187.648 50.9225H185.227L186.414 41.8713H189.796H189.799ZM188.562 47.693C188.443 46.6684 188.324 45.4013 188.206 43.8952C187.968 45.6257 187.821 46.8893 187.759 47.693H188.558H188.562Z" fill="#F7951D"/>
<path d="M199.679 41.8713V47.9211C199.679 48.6054 199.657 49.0905 199.614 49.3657C199.571 49.6444 199.438 49.9268 199.218 50.2201C198.999 50.5133 198.711 50.7342 198.355 50.8862C197.999 51.0383 197.578 51.1143 197.092 51.1143C196.556 51.1143 196.081 51.0238 195.671 50.8464C195.261 50.669 194.951 50.4337 194.75 50.1477C194.545 49.8617 194.426 49.5575 194.39 49.2389C194.354 48.9203 194.336 48.2506 194.336 47.2296V41.875H196.675V48.6633C196.675 49.0579 196.696 49.3114 196.739 49.42C196.782 49.5286 196.869 49.5865 196.998 49.5865C197.146 49.5865 197.243 49.525 197.286 49.4055C197.329 49.286 197.351 49 197.351 48.5474V41.8786H199.69L199.679 41.8713Z" fill="#F7951D"/>
<path d="M205.806 41.8713V50.9225H203.755L202.539 46.806V50.9225H200.582V41.8713H202.539L203.849 45.948V41.8713H205.806Z" fill="#F7951D"/>
<path d="M209.085 41.8713V50.9225H206.746V41.8713H209.085Z" fill="#F7951D"/>
<path d="M215.576 41.8713L214.389 50.9225H210.837L209.488 41.8713H211.956C212.241 44.3658 212.446 46.4729 212.568 48.1963C212.69 46.4548 212.816 44.9089 212.953 43.5548L213.115 41.8713H215.583H215.576Z" fill="#F7951D"/>
<path d="M215.98 41.8713H219.881V43.6816H218.319V45.3977H219.78V47.121H218.319V49.1122H220.035V50.9225H215.98V41.8713Z" fill="#F7951D"/>
<path d="M220.707 41.8713H222.362C223.466 41.8713 224.211 41.9147 224.603 42.0016C224.995 42.0885 225.312 42.3057 225.56 42.6569C225.805 43.0081 225.931 43.5693 225.931 44.3441C225.931 45.05 225.844 45.5207 225.668 45.7633C225.495 46.0058 225.15 46.1507 224.639 46.1977C225.103 46.3136 225.413 46.4693 225.571 46.6611C225.729 46.8567 225.83 47.0341 225.87 47.197C225.909 47.3599 225.927 47.8052 225.927 48.5365V50.9224H223.754V47.9138C223.754 47.4287 223.715 47.1282 223.639 47.0123C223.563 46.8965 223.366 46.8386 223.042 46.8386V50.9188H220.703V41.8677L220.707 41.8713ZM223.045 43.4208V45.4338C223.308 45.4338 223.491 45.3976 223.599 45.3252C223.704 45.2528 223.758 45.0175 223.758 44.6192V44.1232C223.758 43.8372 223.707 43.6489 223.607 43.5584C223.506 43.4679 223.319 43.4245 223.049 43.4245L223.045 43.4208Z" fill="#F7951D"/>
<path d="M231.789 44.612H229.616V43.9423C229.616 43.6309 229.587 43.4282 229.533 43.3449C229.479 43.258 229.386 43.2182 229.256 43.2182C229.116 43.2182 229.008 43.2761 228.936 43.392C228.864 43.5078 228.828 43.6816 228.828 43.9169C228.828 44.2174 228.868 44.4455 228.95 44.5976C229.03 44.7496 229.249 44.9343 229.612 45.1515C230.652 45.7742 231.307 46.2847 231.581 46.6829C231.85 47.0812 231.987 47.7256 231.987 48.6126C231.987 49.2571 231.912 49.7314 231.76 50.0391C231.609 50.3432 231.321 50.6003 230.89 50.8066C230.462 51.013 229.961 51.118 229.389 51.118C228.763 51.118 228.227 50.9985 227.785 50.7596C227.342 50.5206 227.051 50.2165 226.914 49.8472C226.777 49.4779 226.709 48.953 226.709 48.2759V47.6822H228.882V48.7828C228.882 49.1231 228.911 49.3403 228.972 49.4381C229.033 49.5359 229.141 49.5829 229.296 49.5829C229.451 49.5829 229.566 49.5214 229.645 49.3983C229.72 49.2752 229.76 49.0942 229.76 48.8516C229.76 48.3194 229.688 47.9718 229.544 47.8053C229.397 47.6424 229.03 47.3672 228.45 46.9834C227.867 46.5961 227.483 46.3137 227.295 46.1399C227.108 45.9661 226.95 45.7235 226.828 45.4122C226.702 45.1044 226.641 44.7062 226.641 44.2283C226.641 43.5332 226.727 43.0263 226.903 42.7077C227.08 42.3855 227.364 42.1357 227.756 41.9546C228.148 41.7736 228.623 41.6831 229.177 41.6831C229.785 41.6831 230.303 41.7809 230.731 41.98C231.16 42.1791 231.444 42.4253 231.581 42.7258C231.721 43.0263 231.789 43.5368 231.789 44.2536V44.612Z" fill="#F7951D"/>
<path d="M235.057 41.8713V50.9225H232.719V41.8713H235.057Z" fill="#F7951D"/>
<path d="M240.711 41.8713V43.6816H239.322V50.9225H236.983V43.6816H235.602V41.8713H240.714H240.711Z" fill="#F7951D"/>
<path d="M246.226 41.8713L244.521 47.6459V50.9225H242.355V47.6459L240.711 41.8713H242.862C243.201 43.6345 243.388 44.822 243.427 45.4339C243.557 44.4672 243.773 43.2797 244.079 41.8713H246.23H246.226Z" fill="#F7951D"/>
<path d="M254.79 47.1717C254.79 48.0804 254.768 48.7248 254.725 49.105C254.682 49.4815 254.549 49.8291 254.326 50.1404C254.103 50.4518 253.8 50.6944 253.419 50.8609C253.038 51.0274 252.591 51.1107 252.084 51.1107C251.577 51.1107 251.17 51.0311 250.785 50.8718C250.4 50.7125 250.095 50.4771 249.861 50.1585C249.627 49.8399 249.49 49.496 249.443 49.1231C249.4 48.7502 249.375 48.0985 249.375 47.168V45.6185C249.375 44.7098 249.397 44.0653 249.44 43.6852C249.483 43.3086 249.616 42.9611 249.839 42.6497C250.062 42.3384 250.364 42.0958 250.746 41.9293C251.127 41.7627 251.573 41.6794 252.081 41.6794C252.563 41.6794 252.994 41.7591 253.379 41.9184C253.764 42.0777 254.07 42.313 254.304 42.6316C254.538 42.9502 254.675 43.2942 254.721 43.6671C254.765 44.04 254.79 44.6917 254.79 45.6221V47.1717ZM252.451 44.1993C252.451 43.7793 252.43 43.5078 252.383 43.3919C252.336 43.2761 252.243 43.2145 252.095 43.2145C251.973 43.2145 251.879 43.2616 251.814 43.3557C251.75 43.4498 251.717 43.7322 251.717 44.1957V48.4207C251.717 48.9457 251.739 49.2715 251.782 49.3946C251.825 49.5177 251.922 49.5793 252.081 49.5793C252.239 49.5793 252.343 49.5068 252.386 49.3657C252.43 49.2245 252.455 48.8878 252.455 48.3555V44.1957L252.451 44.1993Z" fill="#F7951D"/>
<path d="M255.664 41.8713H259.625V43.6816H258.003V45.3977H259.445V47.121H258.003V50.9225H255.664V41.8713Z" fill="#F7951D"/>
<path d="M265.354 41.8713V50.9225H263.016V41.8713H265.354Z" fill="#F7951D"/>
<path d="M271.513 41.8713V50.9225H269.462L268.246 46.806V50.9225H266.289V41.8713H268.246L269.556 45.948V41.8713H271.513Z" fill="#F7951D"/>
<path d="M272.453 41.8713H276.414V43.6816H274.792V45.3977H276.234V47.121H274.792V50.9225H272.453V41.8713Z" fill="#F7951D"/>
<path d="M282.329 47.1717C282.329 48.0804 282.307 48.7248 282.264 49.105C282.221 49.4815 282.088 49.8291 281.865 50.1404C281.642 50.4518 281.339 50.6944 280.958 50.8609C280.577 51.0274 280.131 51.1107 279.623 51.1107C279.116 51.1107 278.709 51.0311 278.324 50.8718C277.939 50.7125 277.634 50.4771 277.4 50.1585C277.166 49.8399 277.029 49.496 276.982 49.1231C276.939 48.7502 276.914 48.0985 276.914 47.168V45.6185C276.914 44.7098 276.936 44.0653 276.979 43.6852C277.022 43.3086 277.155 42.9611 277.378 42.6497C277.601 42.3384 277.903 42.0958 278.285 41.9293C278.666 41.7627 279.112 41.6794 279.62 41.6794C280.102 41.6794 280.534 41.7591 280.918 41.9184C281.303 42.0777 281.609 42.313 281.843 42.6316C282.077 42.9502 282.214 43.2942 282.261 43.6671C282.304 44.04 282.329 44.6917 282.329 45.6221V47.1717ZM279.99 44.1993C279.99 43.7793 279.969 43.5078 279.922 43.3919C279.875 43.2761 279.782 43.2145 279.634 43.2145C279.512 43.2145 279.418 43.2616 279.353 43.3557C279.289 43.4498 279.256 43.7322 279.256 44.1957V48.4207C279.256 48.9457 279.278 49.2715 279.321 49.3946C279.364 49.5177 279.461 49.5793 279.62 49.5793C279.778 49.5793 279.882 49.5068 279.925 49.3657C279.969 49.2245 279.994 48.8878 279.994 48.3555V44.1957L279.99 44.1993Z" fill="#F7951D"/>
<path d="M283.199 41.8713H284.854C285.958 41.8713 286.703 41.9147 287.095 42.0016C287.488 42.0885 287.804 42.3057 288.052 42.6569C288.297 43.0081 288.423 43.5693 288.423 44.3441C288.423 45.05 288.337 45.5207 288.16 45.7633C287.988 46.0058 287.642 46.1507 287.131 46.1977C287.596 46.3136 287.905 46.4693 288.063 46.6611C288.222 46.8567 288.322 47.0341 288.362 47.197C288.401 47.3599 288.419 47.8052 288.419 48.5365V50.9224H286.246V47.9138C286.246 47.4287 286.207 47.1282 286.131 47.0123C286.056 46.8965 285.858 46.8386 285.534 46.8386V50.9188H283.195V41.8677L283.199 41.8713ZM285.538 43.4208V45.4338C285.8 45.4338 285.984 45.3976 286.092 45.3252C286.196 45.2528 286.25 45.0175 286.25 44.6192V44.1232C286.25 43.8372 286.2 43.6489 286.099 43.5584C285.998 43.4679 285.811 43.4245 285.541 43.4245L285.538 43.4208Z" fill="#F7951D"/>
<path d="M296.546 41.8713V50.9225H294.502V44.8111L293.685 50.9225H292.236L291.376 44.9523V50.9225H289.332V41.8713H292.361C292.451 42.4144 292.545 43.0552 292.646 43.7938L292.969 46.0964L293.502 41.8713H296.553H296.546Z" fill="#F7951D"/>
<path d="M301.522 41.8713L302.861 50.9225H300.464L300.349 49.2969H299.511L299.371 50.9225H296.949L298.137 41.8713H301.519H301.522ZM300.284 47.693C300.166 46.6684 300.047 45.4013 299.928 43.8952C299.691 45.6257 299.543 46.8893 299.482 47.693H300.281H300.284Z" fill="#F7951D"/>
<path d="M307.976 41.8713V43.6816H306.587V50.9225H304.249V43.6816H302.867V41.8713H307.98H307.976Z" fill="#F7951D"/>
<path d="M310.846 41.8713V50.9225H308.508V41.8713H310.846Z" fill="#F7951D"/>
<path d="M317.13 47.1717C317.13 48.0804 317.108 48.7248 317.065 49.105C317.022 49.4851 316.889 49.8291 316.665 50.1404C316.442 50.4518 316.14 50.6944 315.755 50.8609C315.374 51.0274 314.928 51.1107 314.42 51.1107C313.913 51.1107 313.507 51.0311 313.122 50.8718C312.737 50.7125 312.431 50.4771 312.197 50.1585C311.963 49.8399 311.826 49.496 311.78 49.1231C311.736 48.7502 311.715 48.0985 311.715 47.168V45.6185C311.715 44.7098 311.736 44.0653 311.78 43.6852C311.823 43.3086 311.956 42.9611 312.179 42.6497C312.402 42.3384 312.704 42.0958 313.086 41.9293C313.467 41.7627 313.913 41.6794 314.42 41.6794C314.928 41.6794 315.334 41.7591 315.719 41.9184C316.104 42.0777 316.41 42.313 316.644 42.6316C316.878 42.9502 317.018 43.2942 317.061 43.6671C317.104 44.04 317.13 44.6917 317.13 45.6221V47.1717ZM314.791 44.1993C314.791 43.7793 314.769 43.5078 314.723 43.3919C314.676 43.2761 314.582 43.2145 314.438 43.2145C314.316 43.2145 314.223 43.2616 314.158 43.3557C314.093 43.4498 314.061 43.7322 314.061 44.1957V48.4207C314.061 48.9457 314.082 49.2715 314.125 49.3946C314.169 49.5177 314.266 49.5793 314.424 49.5793C314.582 49.5793 314.687 49.5068 314.73 49.3657C314.773 49.2245 314.798 48.8878 314.798 48.3555V44.1957L314.791 44.1993Z" fill="#F7951D"/>
<path d="M323.22 41.8713V50.9225H321.169L319.953 46.806V50.9225H317.996V41.8713H319.953L321.263 45.948V41.8713H323.22Z" fill="#F7951D"/>
<path d="M331.026 41.8713L332.364 50.9225H329.968L329.853 49.2969H329.015L328.874 50.9225H326.453L327.64 41.8713H331.022H331.026ZM329.788 47.693C329.67 46.6684 329.551 45.4013 329.432 43.8952C329.195 45.6257 329.047 46.8893 328.986 47.693H329.785H329.788Z" fill="#F7951D"/>
<path d="M337.986 41.8713V50.9225H335.935L334.719 46.806V50.9225H332.762V41.8713H334.719L336.029 45.948V41.8713H337.986Z" fill="#F7951D"/>
<path d="M338.925 41.8713H340.674C341.804 41.8713 342.567 41.922 342.966 42.027C343.365 42.132 343.667 42.3022 343.873 42.5411C344.081 42.7801 344.211 43.0444 344.261 43.3376C344.311 43.6309 344.34 44.2065 344.34 45.061V48.2325C344.34 49.0434 344.301 49.5865 344.225 49.8617C344.15 50.1368 344.016 50.3504 343.829 50.5061C343.639 50.6618 343.408 50.7704 343.128 50.8319C342.851 50.8935 342.43 50.9225 341.872 50.9225H338.922V41.8713H338.925ZM341.264 43.4209V49.3765C341.602 49.3765 341.807 49.3077 341.887 49.1738C341.966 49.0362 342.005 48.6669 342.005 48.0623V44.5468C342.005 44.1377 341.991 43.8734 341.966 43.7576C341.94 43.6417 341.879 43.5585 341.789 43.5042C341.696 43.4499 341.523 43.4245 341.268 43.4245L341.264 43.4209Z" fill="#F7951D"/>
<path d="M353.499 45.8177H351.16V44.2428C351.16 43.783 351.135 43.497 351.085 43.3848C351.034 43.2725 350.923 43.2146 350.753 43.2146C350.559 43.2146 350.44 43.2834 350.387 43.421C350.336 43.5585 350.307 43.8554 350.307 44.3152V48.5186C350.307 48.9566 350.333 49.2463 350.387 49.3802C350.437 49.5142 350.556 49.583 350.736 49.583C350.915 49.583 351.023 49.5142 351.077 49.3802C351.131 49.2463 351.156 48.9313 351.156 48.4353V47.3021H353.495V47.6533C353.495 48.5873 353.43 49.2535 353.297 49.6445C353.164 50.0355 352.876 50.3795 352.427 50.6727C351.977 50.966 351.423 51.1144 350.764 51.1144C350.106 51.1144 349.516 50.9913 349.07 50.7415C348.624 50.4917 348.332 50.1478 348.185 49.7061C348.041 49.2644 347.969 48.5982 347.969 47.7112V45.0683C347.969 44.4166 347.99 43.9278 348.034 43.602C348.077 43.2761 348.21 42.9612 348.429 42.6607C348.649 42.3602 348.955 42.1212 349.347 41.9474C349.739 41.7737 350.185 41.6868 350.696 41.6868C351.383 41.6868 351.952 41.8207 352.401 42.0886C352.851 42.3566 353.142 42.6933 353.286 43.0915C353.427 43.4934 353.499 44.1161 353.499 44.9633V45.8249V45.8177Z" fill="#F7951D"/>
<path d="M359.68 47.1717C359.68 48.0804 359.659 48.7248 359.616 49.105C359.572 49.4815 359.439 49.8291 359.216 50.1404C358.993 50.4518 358.691 50.6944 358.306 50.8609C357.925 51.0274 357.479 51.1107 356.971 51.1107C356.464 51.1107 356.057 51.0311 355.672 50.8718C355.287 50.7125 354.982 50.4771 354.748 50.1585C354.514 49.8399 354.377 49.496 354.33 49.1231C354.287 48.7502 354.266 48.0985 354.266 47.168V45.6185C354.266 44.7098 354.287 44.0653 354.33 43.6852C354.374 43.3086 354.507 42.9611 354.73 42.6497C354.953 42.3384 355.255 42.0958 355.636 41.9293C356.018 41.7627 356.464 41.6794 356.971 41.6794C357.479 41.6794 357.885 41.7591 358.27 41.9184C358.655 42.0777 358.961 42.313 359.195 42.6316C359.429 42.9502 359.569 43.2942 359.612 43.6671C359.655 44.04 359.68 44.6917 359.68 45.6221V47.1717ZM357.342 44.1993C357.342 43.7793 357.32 43.5078 357.273 43.3919C357.227 43.2761 357.133 43.2145 356.989 43.2145C356.867 43.2145 356.773 43.2616 356.709 43.3557C356.644 43.4498 356.611 43.7322 356.611 44.1957V48.4207C356.611 48.9457 356.633 49.2715 356.676 49.3946C356.719 49.5177 356.817 49.5793 356.975 49.5793C357.133 49.5793 357.237 49.5068 357.281 49.3657C357.324 49.2245 357.349 48.8878 357.349 48.3555V44.1957L357.342 44.1993Z" fill="#F7951D"/>
<path d="M367.768 41.8713V50.9225H365.725V44.8111L364.908 50.9225H363.458L362.598 44.9523V50.9225H360.555V41.8713H363.584C363.674 42.4144 363.768 43.0552 363.868 43.7938L364.192 46.0964L364.725 41.8713H367.776H367.768Z" fill="#F7951D"/>
<path d="M375.929 41.8713V50.9225H373.885V44.8111L373.068 50.9225H371.618L370.758 44.9523V50.9225H368.715V41.8713H371.744C371.834 42.4144 371.928 43.0552 372.028 43.7938L372.352 46.0964L372.885 41.8713H375.936H375.929Z" fill="#F7951D"/>
<path d="M382.186 41.8713V47.9211C382.186 48.6054 382.164 49.0905 382.118 49.3657C382.074 49.6444 381.941 49.9268 381.722 50.2201C381.502 50.5133 381.215 50.7342 380.858 50.8862C380.502 51.0383 380.081 51.1143 379.595 51.1143C379.059 51.1143 378.584 51.0238 378.174 50.8464C377.764 50.669 377.455 50.4337 377.253 50.1477C377.048 49.8617 376.929 49.5575 376.893 49.2389C376.858 48.9203 376.836 48.2506 376.836 47.2296V41.875H379.175V48.6633C379.175 49.0579 379.196 49.3114 379.239 49.42C379.282 49.5286 379.369 49.5865 379.498 49.5865C379.646 49.5865 379.743 49.525 379.783 49.4055C379.826 49.286 379.847 49 379.847 48.5474V41.8786H382.186V41.8713Z" fill="#F7951D"/>
<path d="M388.31 41.8713V50.9225H386.259L385.043 46.806V50.9225H383.086V41.8713H385.043L386.353 45.948V41.8713H388.31Z" fill="#F7951D"/>
<path d="M391.589 41.8713V50.9225H389.25V41.8713H391.589Z" fill="#F7951D"/>
<path d="M397.991 45.8177H395.653V44.2428C395.653 43.783 395.627 43.497 395.577 43.3848C395.527 43.2725 395.415 43.2146 395.246 43.2146C395.052 43.2146 394.933 43.2834 394.879 43.421C394.829 43.5585 394.8 43.8554 394.8 44.3152V48.5186C394.8 48.9566 394.825 49.2463 394.879 49.3802C394.933 49.5142 395.048 49.583 395.228 49.583C395.408 49.583 395.516 49.5142 395.57 49.3802C395.624 49.2463 395.649 48.9313 395.649 48.4353V47.3021H397.988V47.6533C397.988 48.5873 397.923 49.2535 397.79 49.6445C397.657 50.0355 397.369 50.3795 396.919 50.6727C396.469 50.966 395.915 51.1144 395.257 51.1144C394.598 51.1144 394.008 50.9913 393.562 50.7415C393.116 50.4917 392.825 50.1478 392.681 49.7061C392.537 49.2644 392.465 48.5982 392.465 47.7112V45.0683C392.465 44.4166 392.486 43.9278 392.53 43.602C392.573 43.2761 392.706 42.9612 392.925 42.6607C393.145 42.3602 393.451 42.1212 393.843 41.9474C394.235 41.7737 394.681 41.6868 395.192 41.6868C395.879 41.6868 396.448 41.8207 396.897 42.0886C397.347 42.3566 397.639 42.6933 397.783 43.0915C397.923 43.4934 397.995 44.1161 397.995 44.9633V45.8249L397.991 45.8177Z" fill="#F7951D"/>
<path d="M402.866 41.8713L404.204 50.9225H401.808L401.693 49.2969H400.855L400.714 50.9225H398.293L399.48 41.8713H402.862H402.866ZM401.628 47.693C401.509 46.6684 401.391 45.4013 401.272 43.8952C401.035 45.6257 400.887 46.8893 400.826 47.693H401.625H401.628Z" fill="#F7951D"/>
<path d="M409.316 41.8713V43.6816H407.927V50.9225H405.589V43.6816H404.207V41.8713H409.32H409.316Z" fill="#F7951D"/>
<path d="M412.19 41.8713V50.9225H409.852V41.8713H412.19Z" fill="#F7951D"/>
<path d="M418.473 47.1717C418.473 48.0804 418.452 48.7248 418.409 49.105C418.365 49.4815 418.232 49.8291 418.009 50.1404C417.786 50.4518 417.484 50.6944 417.099 50.8609C416.718 51.0274 416.271 51.1107 415.764 51.1107C415.257 51.1107 414.85 51.0311 414.465 50.8718C414.08 50.7125 413.775 50.4771 413.541 50.1585C413.307 49.8399 413.17 49.496 413.123 49.1231C413.08 48.7502 413.059 48.0985 413.059 47.168V45.6185C413.059 44.7098 413.08 44.0653 413.123 43.6852C413.167 43.3086 413.3 42.9611 413.523 42.6497C413.746 42.3384 414.048 42.0958 414.429 41.9293C414.811 41.7627 415.257 41.6794 415.764 41.6794C416.271 41.6794 416.678 41.7591 417.063 41.9184C417.448 42.0777 417.754 42.313 417.988 42.6316C418.222 42.9502 418.362 43.2942 418.405 43.6671C418.448 44.04 418.473 44.6917 418.473 45.6221V47.1717ZM416.135 44.1993C416.135 43.7793 416.113 43.5078 416.066 43.3919C416.02 43.2761 415.926 43.2145 415.782 43.2145C415.66 43.2145 415.566 43.2616 415.502 43.3557C415.437 43.4498 415.404 43.7322 415.404 44.1957V48.4207C415.404 48.9457 415.426 49.2715 415.469 49.3946C415.512 49.5177 415.609 49.5793 415.768 49.5793C415.926 49.5793 416.03 49.5068 416.074 49.3657C416.117 49.2245 416.142 48.8878 416.142 48.3555V44.1957L416.135 44.1993Z" fill="#F7951D"/>
<path d="M424.568 41.8713V50.9225H422.517L421.301 46.806V50.9225H419.344V41.8713H421.301L422.611 45.948V41.8713H424.568Z" fill="#F7951D"/>
<path d="M433.039 41.8713V43.6816H431.65V50.9225H429.311V43.6816H427.93V41.8713H433.042H433.039Z" fill="#F7951D"/>
<path d="M433.57 41.8713H437.47V43.6816H435.909V45.3977H437.37V47.121H435.909V49.1122H437.625V50.9225H433.57V41.8713Z" fill="#F7951D"/>
<path d="M443.764 45.8177H441.426V44.2428C441.426 43.783 441.4 43.497 441.35 43.3848C441.3 43.2725 441.188 43.2146 441.019 43.2146C440.825 43.2146 440.706 43.2834 440.652 43.421C440.602 43.5585 440.573 43.8554 440.573 44.3152V48.5186C440.573 48.9566 440.598 49.2463 440.652 49.3802C440.703 49.5142 440.821 49.583 441.001 49.583C441.181 49.583 441.289 49.5142 441.343 49.3802C441.397 49.2463 441.422 48.9313 441.422 48.4353V47.3021H443.761V47.6533C443.761 48.5873 443.696 49.2535 443.563 49.6445C443.43 50.0355 443.142 50.3795 442.692 50.6727C442.242 50.966 441.688 51.1144 441.03 51.1144C440.372 51.1144 439.781 50.9913 439.335 50.7415C438.889 50.4917 438.598 50.1478 438.45 49.7061C438.306 49.2644 438.234 48.5982 438.234 47.7112V45.0683C438.234 44.4166 438.256 43.9278 438.299 43.602C438.342 43.2761 438.475 42.9612 438.695 42.6607C438.914 42.3602 439.22 42.1212 439.612 41.9474C440.005 41.7737 440.451 41.6868 440.962 41.6868C441.649 41.6868 442.217 41.8207 442.667 42.0886C443.117 42.3566 443.408 42.6933 443.552 43.0915C443.692 43.4934 443.764 44.1161 443.764 44.9633V45.8249V45.8177Z" fill="#F7951D"/>
<path d="M449.98 41.8713V50.9225H447.642V47.121H446.94V50.9225H444.602V41.8713H446.94V45.108H447.642V41.8713H449.98Z" fill="#F7951D"/>
<path d="M456.142 41.8713V50.9225H454.091L452.875 46.806V50.9225H450.918V41.8713H452.875L454.185 45.948V41.8713H456.142Z" fill="#F7951D"/>
<path d="M462.427 47.1717C462.427 48.0804 462.405 48.7248 462.362 49.105C462.319 49.4851 462.185 49.8291 461.962 50.1404C461.739 50.4518 461.437 50.6944 461.052 50.8609C460.671 51.0274 460.225 51.1107 459.717 51.1107C459.21 51.1107 458.803 51.0311 458.418 50.8718C458.034 50.7125 457.728 50.4771 457.494 50.1585C457.26 49.8399 457.123 49.496 457.076 49.1231C457.033 48.7502 457.012 48.0985 457.012 47.168V45.6185C457.012 44.7098 457.033 44.0653 457.076 43.6852C457.12 43.3086 457.253 42.9611 457.476 42.6497C457.699 42.3384 458.001 42.0958 458.383 41.9293C458.764 41.7627 459.21 41.6794 459.717 41.6794C460.225 41.6794 460.631 41.7591 461.016 41.9184C461.401 42.0777 461.707 42.313 461.941 42.6316C462.175 42.9502 462.315 43.2942 462.358 43.6671C462.401 44.04 462.427 44.6917 462.427 45.6221V47.1717ZM460.088 44.1993C460.088 43.7793 460.066 43.5078 460.02 43.3919C459.973 43.2761 459.879 43.2145 459.735 43.2145C459.613 43.2145 459.519 43.2616 459.455 43.3557C459.39 43.4498 459.358 43.7322 459.358 44.1957V48.4207C459.358 48.9457 459.379 49.2715 459.422 49.3946C459.465 49.5177 459.563 49.5793 459.721 49.5793C459.879 49.5793 459.984 49.5068 460.027 49.3657C460.07 49.2245 460.095 48.8878 460.095 48.3555V44.1957L460.088 44.1993Z" fill="#F7951D"/>
<path d="M465.639 41.8713V49.1122H467.061V50.9225H463.301V41.8713H465.639Z" fill="#F7951D"/>
<path d="M472.969 47.1717C472.969 48.0804 472.948 48.7248 472.905 49.105C472.862 49.4815 472.728 49.8291 472.505 50.1404C472.282 50.4518 471.98 50.6944 471.595 50.8609C471.214 51.0274 470.768 51.1107 470.26 51.1107C469.753 51.1107 469.346 51.0311 468.961 50.8718C468.576 50.7125 468.271 50.4771 468.037 50.1585C467.803 49.8399 467.666 49.496 467.619 49.1231C467.576 48.7502 467.555 48.0985 467.555 47.168V45.6185C467.555 44.7098 467.576 44.0653 467.619 43.6852C467.663 43.3086 467.796 42.9611 468.019 42.6497C468.242 42.3384 468.544 42.0958 468.925 41.9293C469.307 41.7627 469.753 41.6794 470.26 41.6794C470.768 41.6794 471.174 41.7591 471.559 41.9184C471.944 42.0777 472.25 42.313 472.484 42.6316C472.718 42.9502 472.858 43.2942 472.901 43.6671C472.944 44.04 472.969 44.6917 472.969 45.6221V47.1717ZM470.631 44.1993C470.631 43.7793 470.609 43.5078 470.563 43.3919C470.516 43.2761 470.422 43.2145 470.278 43.2145C470.156 43.2145 470.062 43.2616 469.998 43.3557C469.933 43.4498 469.901 43.7322 469.901 44.1957V48.4207C469.901 48.9457 469.922 49.2715 469.965 49.3946C470.008 49.5177 470.106 49.5793 470.264 49.5793C470.422 49.5793 470.527 49.5068 470.57 49.3657C470.613 49.2245 470.638 48.8878 470.638 48.3555V44.1957L470.631 44.1993Z" fill="#F7951D"/>
<path d="M479.21 45.2058H476.871V44.384C476.871 43.8663 476.85 43.5404 476.803 43.4101C476.76 43.2798 476.652 43.2146 476.486 43.2146C476.342 43.2146 476.245 43.2689 476.191 43.3811C476.141 43.4934 476.112 43.7794 476.112 44.2428V48.5873C476.112 48.9928 476.137 49.2607 476.191 49.3911C476.242 49.5178 476.346 49.583 476.504 49.583C476.673 49.583 476.788 49.5106 476.85 49.3657C476.911 49.2209 476.94 48.9385 476.94 48.5149V47.4433H476.468V46.0675H479.206V50.9261H477.735L477.519 50.2781C477.361 50.5569 477.159 50.7669 476.918 50.908C476.677 51.0492 476.389 51.118 476.058 51.118C475.666 51.118 475.299 51.0203 474.954 50.8284C474.612 50.6365 474.349 50.3976 474.173 50.1152C473.997 49.8328 473.885 49.5359 473.838 49.2245C473.795 48.9132 473.773 48.4461 473.773 47.8234V45.1334C473.773 44.2681 473.82 43.6418 473.914 43.2508C474.007 42.8598 474.274 42.5014 474.712 42.1755C475.151 41.8497 475.72 41.6868 476.414 41.6868C477.109 41.6868 477.666 41.828 478.12 42.1104C478.573 42.3928 478.864 42.7295 479.005 43.1205C479.141 43.5115 479.21 44.0763 479.21 44.8185V45.2095V45.2058Z" fill="#F7951D"/>
<path d="M485.098 41.8713L483.392 47.6459V50.9225H481.226V47.6459L479.582 41.8713H481.734C482.072 43.6345 482.259 44.822 482.302 45.4339C482.432 44.4672 482.647 43.2797 482.953 41.8713H485.105H485.098Z" fill="#F7951D"/>
<path d="M113.75 57.1061H121.68V58.5361H113.75V57.1061ZM121.032 61.056C121.032 62.2254 119.935 63.2753 117.607 63.2753C115.524 63.2753 114.426 62.2254 114.426 61.056C114.426 59.8866 115.524 58.8511 117.607 58.8511C119.935 58.8511 121.032 59.8721 121.032 61.056ZM116.215 63.8075C116.984 63.8075 117.161 63.8908 117.161 64.0537C117.161 64.1913 117.024 64.394 117.024 64.68V65.8494H124.698V67.5112H115.063V63.8075H116.215ZM115.754 55.2271H119.719V56.6716H115.754V55.2271ZM116.376 61.0705C116.376 61.5882 116.823 61.9828 117.729 61.9828C118.636 61.9828 119.082 61.5882 119.082 61.0705C119.082 60.5527 118.636 60.1436 117.729 60.1436C116.823 60.1436 116.376 60.5382 116.376 61.0705ZM123.306 55.0786C124.306 55.0786 124.551 55.1329 124.551 55.3248C124.551 55.4877 124.349 55.7593 124.349 56.1973V59.4521H126.04V61.1935H124.349V64.4882H122.399V55.0786H123.306Z" fill="#374E88"/>
<path d="M126.812 63.1813V61.791H130.522V63.1813H126.812Z" fill="#374E88"/>
<path d="M136.91 56.0559C137.641 56.0559 137.803 56.1246 137.803 56.2876C137.803 56.4107 137.695 56.6025 137.695 56.8451V59.3903H138.925V55.3462H140.008C140.767 55.3462 140.943 55.415 140.943 55.5635C140.943 55.6866 140.807 55.8748 140.807 56.1355V67.6304H138.925V61.0412H137.695V65.1251H132.172V56.0559H133.377C134.068 56.0559 134.244 56.1102 134.244 56.2731C134.244 56.4107 134.082 56.6532 134.082 56.9935V58.8182H135.788V56.0522H136.91V56.0559ZM134.082 60.48V63.4633H135.788V60.48H134.082ZM142.879 55.0747C143.584 55.0747 143.757 55.129 143.757 55.2775C143.757 55.4259 143.595 55.6576 143.595 56.0124V67.8332H141.674V55.0747H142.879Z" fill="#374E88"/>
<path d="M145.87 55.7303H152.879V57.4174H150.389V57.6889C150.389 58.4239 151.605 60.1146 153.57 60.5092C153.163 60.9328 152.731 61.5447 152.393 62.1167C151.001 61.5447 149.821 60.5491 149.443 59.72C149.119 60.5491 147.899 61.628 146.356 62.2796C146.057 61.856 145.41 61.2189 144.949 60.8242C146.993 60.5092 148.508 58.6194 148.508 57.6781V57.421H145.87V55.7339V55.7303ZM156.75 65.386C156.75 66.7473 155.182 67.9999 151.717 67.9999C148.252 67.9999 146.629 66.7473 146.629 65.386C146.629 64.0247 148.198 62.8118 151.717 62.8118C155.236 62.8118 156.75 64.0392 156.75 65.386ZM148.644 65.4005C148.644 66.0811 149.551 66.6133 151.717 66.6133C153.883 66.6133 154.735 66.0811 154.735 65.4005C154.735 64.7596 153.843 64.2419 151.731 64.2419C149.619 64.2419 148.644 64.7596 148.644 65.4005ZM155.75 55.0786C156.657 55.0786 156.873 55.1329 156.873 55.2958C156.873 55.4587 156.642 55.7447 156.642 56.2226V63.0979H154.681V59.3941H152.206V57.7867H154.681V55.075H155.75V55.0786Z" fill="#374E88"/>
<path d="M168.983 55.8533C169.767 55.8533 169.944 55.9221 169.944 56.0705C169.944 56.1791 169.836 56.3565 169.836 56.5882V62.4316H165.831C165.817 62.5945 165.63 62.8552 165.63 63.2498V64.5967H171.152V66.2983H158.484V64.5967H163.694V62.4316H159.852V55.8533H161.014C161.773 55.8533 161.935 55.9076 161.935 56.0452C161.935 56.1682 161.812 56.3312 161.812 56.5629V57.678H167.889V55.8533H168.987H168.983ZM161.812 59.2565V60.864H167.889V59.2565H161.812Z" fill="#374E88"/>
<path d="M173.385 55.2271H183.373V56.6028H175.336V57.1893H183.373V58.5904H175.336V59.2313H183.481V60.6324H179.38C179.38 60.741 179.351 60.8641 179.351 61.0017V61.4651H184.697V63.0327H172.004V61.4651H177.415V60.636H173.382V55.2307L173.385 55.2271ZM183.683 65.7119C183.683 66.7473 182.114 68 178.336 68C174.558 68 173.112 66.7871 173.112 65.7119C173.112 64.5823 174.695 63.4527 178.336 63.4527C181.977 63.4527 183.683 64.5823 183.683 65.7119ZM175.13 65.7119C175.13 66.1608 175.875 66.6097 178.336 66.6097C180.797 66.6097 181.664 66.1608 181.664 65.7119C181.664 65.3028 180.905 64.8936 178.336 64.8936C175.767 64.8936 175.13 65.3028 175.13 65.7119Z" fill="#374E88"/>
<path d="M190.155 55.4044C190.817 55.4044 190.979 55.4732 190.979 55.6361C190.979 55.799 190.788 56.0597 190.788 56.4399C190.788 57.8699 191.831 60.1182 193.994 61.0849C193.493 61.4795 192.993 61.9972 192.587 62.515C191.464 61.8198 190.273 60.5129 189.935 59.3978C189.622 60.5817 188.676 61.8488 187.093 62.8553C186.726 62.4462 186.103 61.9031 185.578 61.5338C187.636 60.5382 188.949 58.8257 188.949 55.4044H190.155ZM188.302 63.4237C189.072 63.4237 189.262 63.4925 189.262 63.6554C189.262 63.8038 189.1 64.0247 189.1 64.3505V65.8494H197.383V67.5112H187.15V63.4273H188.302V63.4237ZM196.462 55.075C197.221 55.075 197.408 55.1293 197.408 55.2668C197.408 55.4044 197.246 55.6216 197.246 55.962V64.4881H195.285V55.0786H196.462V55.075Z" fill="#374E88"/>
<path d="M199.818 56.1792H205.988C205.988 61.3528 204.337 63.9269 200.642 66.1209C200.235 65.5887 199.681 64.9914 199.152 64.5424C201.941 63.7532 203.862 60.7844 203.862 57.8953H199.814V56.1792H199.818ZM209.996 55.075C210.766 55.075 210.943 55.1148 210.943 55.2524C210.943 55.3755 210.781 55.6072 210.781 55.9728V67.8334H208.82V55.075H209.996Z" fill="#374E88"/>
<path d="M225.29 60.3898V61.8995H219.932V62.4317H223.98V65.6576H215.928V66.3527H224.21V67.6886H213.992V64.3542H222.015V63.7532H213.992V62.4317H217.997V61.8995H212.625V60.3898H225.293H225.29ZM219.159 55.0786C219.806 55.0786 220.091 55.1329 220.091 55.3501C220.091 55.4334 220.037 55.5529 219.929 55.7194C219.929 56.5087 221.782 57.87 224.786 58.0329C224.419 58.4818 224.041 59.0683 223.732 59.6259C221.605 59.2566 219.659 58.442 218.968 57.4066C218.263 58.3877 216.101 59.3544 214.233 59.6802C213.92 59.2313 213.463 58.6592 212.974 58.1415C215.734 57.9786 217.939 56.6716 217.939 55.0786H219.159Z" fill="#374E88"/>
<path d="M226.812 56.1791H232.169V57.8409H228.758V63.478H229.244C230.057 63.478 231.45 63.4092 232.694 63.1919C232.777 63.7242 232.885 64.336 232.964 64.8248C231.244 65.1651 229.269 65.1796 228.078 65.1796H226.805V56.1791H226.812ZM237.623 55.0749C238.329 55.0749 238.505 55.1292 238.505 55.2777C238.505 55.4261 238.343 55.6578 238.343 56.0126V67.8334H236.422V62.2362H235.447V67.3446H233.565V55.3066H234.864C235.486 55.3066 235.663 55.3464 235.663 55.4695C235.663 55.6071 235.447 55.8388 235.447 56.2045V60.5744H236.422V55.0713H237.627L237.623 55.0749Z" fill="#374E88"/>
<path d="M240.195 56.9431H248.125V58.3587H240.195V56.9431ZM247.477 60.7012C247.477 61.7764 246.38 62.7829 244.121 62.7829C241.861 62.7829 240.872 61.7764 240.872 60.7012C240.872 59.6259 241.969 58.6846 244.121 58.6846C246.38 58.6846 247.477 59.6657 247.477 60.7012ZM241.116 63.6301H250.791V67.8371H248.841V65.2774H241.113V63.6301H241.116ZM242.199 55.1727H246.164V56.5883H242.199V55.1727ZM242.822 60.7157C242.822 61.2044 243.268 61.5447 244.121 61.5447C245.081 61.5447 245.527 61.2044 245.527 60.7157C245.527 60.2812 245.081 59.9409 244.121 59.9409C243.268 59.9409 242.822 60.2812 242.822 60.7157ZM249.751 55.0786C250.751 55.0786 250.996 55.1329 250.996 55.3248C250.996 55.4877 250.795 55.7593 250.795 56.1973V59.1914H252.486V60.9329H250.795V62.7865H248.845V55.0786H249.751Z" fill="#374E88"/>
<path d="M253.203 64.5824H255.898V60.4696H256.941C257.7 60.4696 257.888 60.5094 257.888 60.6325C257.888 60.7556 257.74 60.933 257.74 61.219V64.5824H259.352V60.4696H260.46C261.205 60.4696 261.392 60.5239 261.392 60.6325C261.392 60.7556 261.19 60.9475 261.19 61.219V64.5824H265.9V66.2985H253.207V64.5824H253.203ZM254.448 55.9368H264.68C264.68 58.9309 264.41 61.1647 263.734 63.4528L261.719 63.3044C262.032 62.3775 262.626 59.941 262.626 57.6529H254.452V55.9368H254.448Z" fill="#374E88"/>
<path d="M114.25 9.3486H113.75V8.29143H114.25V4.38135H116.171C117.413 4.38135 118.251 4.43927 118.686 4.55513C119.125 4.67098 119.456 4.85925 119.683 5.11992C119.91 5.38059 120.053 5.67385 120.111 5.99607C120.169 6.31829 120.197 6.94824 120.197 7.88956V11.3688C120.197 12.2594 120.154 12.8568 120.071 13.1573C119.989 13.4578 119.841 13.6931 119.636 13.8633C119.427 14.0335 119.172 14.1529 118.866 14.2181C118.56 14.2869 118.1 14.3195 117.488 14.3195H114.25V9.3486ZM116.819 9.3486V12.6215C117.19 12.6215 117.416 12.5455 117.503 12.397C117.589 12.2486 117.632 11.8431 117.632 11.1769V7.31391C117.632 6.86497 117.618 6.57534 117.589 6.44862C117.56 6.32191 117.495 6.22778 117.398 6.16985C117.297 6.11192 117.107 6.07934 116.823 6.07934V8.28781H117.226V9.34498H116.823L116.819 9.3486Z" fill="#374E88"/>
<path d="M125.589 4.38159L127.061 14.3197H124.431L124.301 12.5348H123.38L123.229 14.3197H120.57L121.876 4.38159H125.593H125.589ZM124.535 15.0764V16.3906H123.168V15.0764H124.535ZM124.229 10.7717C124.1 9.64572 123.97 8.25547 123.837 6.60455C123.578 8.50528 123.413 9.89191 123.348 10.7717H124.226H124.229Z" fill="#374E88"/>
<path d="M130.065 4.38159V14.3197H127.496V4.38159H130.065Z" fill="#374E88"/>
<path d="M140.099 4.38159V14.3197H137.53V10.1453H136.76V14.3197H134.191V4.38159H136.76V7.93687H137.53V4.38159H140.099Z" fill="#374E88"/>
<path d="M147.003 10.2031C147.003 11.2023 146.978 11.9083 146.935 12.3247C146.888 12.741 146.74 13.1212 146.496 13.4651C146.251 13.8091 145.916 14.0733 145.499 14.258C145.082 14.4426 144.592 14.5331 144.035 14.5331C143.477 14.5331 143.031 14.4463 142.61 14.2725C142.189 14.0987 141.851 13.838 141.595 13.4905C141.34 13.1429 141.185 12.7627 141.138 12.3536C141.088 11.9445 141.066 11.2277 141.066 10.2067V8.5051C141.066 7.50586 141.088 6.79987 141.138 6.38352C141.185 5.96717 141.333 5.58702 141.577 5.24308C141.822 4.89914 142.157 4.63485 142.574 4.4502C142.991 4.26556 143.481 4.17505 144.038 4.17505C144.567 4.17505 145.042 4.26194 145.463 4.43572C145.884 4.6095 146.222 4.87017 146.478 5.21774C146.733 5.5653 146.888 5.94545 146.935 6.35456C146.985 6.76367 147.006 7.48052 147.006 8.50148V10.2031H147.003ZM144.715 15.0762V16.3904H143.347V15.0762H144.715ZM144.434 6.93745C144.434 6.47403 144.409 6.18078 144.358 6.05044C144.308 5.9201 144.204 5.85856 144.045 5.85856C143.912 5.85856 143.808 5.90924 143.736 6.01424C143.664 6.11923 143.628 6.42697 143.628 6.93745V11.5789C143.628 12.1545 143.65 12.5129 143.696 12.6469C143.743 12.7809 143.851 12.8496 144.024 12.8496C144.197 12.8496 144.312 12.7736 144.358 12.6179C144.409 12.4623 144.43 12.093 144.43 11.5065V6.93745H144.434Z" fill="#374E88"/>
<path d="M153.956 8.71529H151.387V6.98472C151.387 6.48148 151.359 6.1665 151.305 6.0434C151.251 5.92031 151.128 5.85514 150.941 5.85514C150.729 5.85514 150.596 5.93117 150.538 6.08323C150.481 6.23529 150.452 6.56113 150.452 7.06437V11.6804C150.452 12.162 150.481 12.4769 150.538 12.6254C150.596 12.7738 150.722 12.8462 150.923 12.8462C151.125 12.8462 151.24 12.7738 151.298 12.6254C151.355 12.4769 151.387 12.133 151.387 11.5863V10.3409H153.956V10.7283C153.956 11.7565 153.884 12.4842 153.74 12.915C153.597 13.3458 153.276 13.7224 152.783 14.0446C152.291 14.3668 151.679 14.5297 150.956 14.5297C150.233 14.5297 149.585 14.3922 149.096 14.117C148.606 13.8418 148.282 13.4617 148.124 12.9766C147.966 12.4914 147.887 11.7637 147.887 10.7898V7.88621C147.887 7.16936 147.912 6.63353 147.959 6.27511C148.009 5.91669 148.153 5.57274 148.394 5.23966C148.635 4.90658 148.97 4.64591 149.401 4.45765C149.83 4.26576 150.322 4.17163 150.88 4.17163C151.636 4.17163 152.262 4.32007 152.755 4.61333C153.248 4.90658 153.571 5.27587 153.726 5.71394C153.881 6.15564 153.956 6.8399 153.956 7.76673V8.71167V8.71529Z" fill="#374E88"/>
<path d="M158.047 9.34884H157.547V8.29167H158.047V4.38159H159.968C161.21 4.38159 162.048 4.43952 162.483 4.55537C162.919 4.67123 163.253 4.85949 163.48 5.12016C163.706 5.38084 163.85 5.67409 163.908 5.99631C163.965 6.31853 163.994 6.94849 163.994 7.8898V11.3691C163.994 12.2597 163.951 12.8571 163.868 13.1576C163.786 13.4581 163.638 13.6934 163.433 13.8635C163.224 14.0337 162.969 14.1532 162.663 14.2183C162.357 14.2871 161.9 14.3197 161.285 14.3197H158.047V9.34884ZM160.616 9.34884V12.6217C160.986 12.6217 161.213 12.5457 161.299 12.3973C161.386 12.2488 161.429 11.8433 161.429 11.1772V7.31415C161.429 6.86522 161.415 6.57558 161.386 6.44887C161.357 6.32215 161.292 6.22802 161.195 6.17009C161.094 6.11217 160.904 6.07958 160.619 6.07958V8.28805H161.022V9.34522H160.619L160.616 9.34884Z" fill="#374E88"/>
<path d="M169.39 4.38154L170.862 14.3197H168.232L168.102 12.5348H167.181L167.03 14.3197H164.371L165.677 4.38154H169.394H169.39ZM167.318 2.67993L168.142 3.95795H167.188L165.652 2.67993H167.318ZM168.03 10.7716C167.901 9.64567 167.771 8.25542 167.642 6.6045C167.383 8.50523 167.217 9.89186 167.152 10.7716H168.03Z" fill="#374E88"/>
<path d="M180.133 4.38159V14.3197H177.881L176.546 9.8014V14.3197H174.398V4.38159H176.546L177.986 8.85646V4.38159H180.133Z" fill="#374E88"/>
<path d="M185.597 4.3815L187.069 14.3196H184.439L184.309 12.5347H183.388L183.237 14.3196H180.578L181.884 4.3815H185.601H185.597ZM185.011 1L185.335 1.73133C185.27 1.80374 185.194 1.88339 185.108 1.96304C185.065 2.00286 184.996 2.06079 184.906 2.12958C184.748 2.23457 184.579 2.28888 184.395 2.28888L184.165 2.27078L183.939 2.20199L183.676 2.08613L183.23 1.90873L183.061 1.87615L182.892 1.86891C182.758 1.86891 182.633 1.91597 182.521 2.0101C182.456 2.06803 182.384 2.1694 182.309 2.3106L182.057 1.53221C182.096 1.46704 182.14 1.40549 182.186 1.34756C182.23 1.29688 182.291 1.24257 182.363 1.1774C182.528 1.07241 182.715 1.0181 182.917 1.0181C182.964 1.0181 183.017 1.0181 183.075 1.02534C183.136 1.0362 183.208 1.05431 183.295 1.07965L183.507 1.13396L183.69 1.21361L184.075 1.36567C184.19 1.40911 184.298 1.43445 184.399 1.43445C184.547 1.43445 184.683 1.36567 184.813 1.23171L185.014 1L185.011 1ZM182.992 2.52421C182.992 2.72695 183.061 2.88987 183.201 3.00935C183.338 3.11434 183.525 3.16865 183.762 3.16865C184 3.16865 184.18 3.1252 184.298 3.03469C184.406 2.94056 184.482 2.7704 184.525 2.52421H185.317C185.317 2.99487 185.173 3.35329 184.888 3.59586C184.604 3.83843 184.226 3.96153 183.759 3.96153C183.266 3.96153 182.884 3.84567 182.611 3.61758C182.334 3.38949 182.197 3.02383 182.197 2.52421H182.989H182.992ZM184.237 10.7752C184.108 9.64925 183.978 8.259 183.849 6.60807C183.59 8.50881 183.424 9.89544 183.359 10.7752H184.237Z" fill="#374E88"/>
<path d="M193.243 4.38159V14.3197H190.991L189.656 9.8014V14.3197H187.508V4.38159H189.656L191.095 8.85646V4.38159H193.243Z" fill="#374E88"/>
<path d="M200.168 8.04148H197.6V7.13999C197.6 6.57158 197.574 6.21678 197.528 6.07196C197.477 5.92714 197.362 5.85835 197.179 5.85835C197.02 5.85835 196.912 5.9199 196.855 6.043C196.797 6.16609 196.768 6.48107 196.768 6.98793V11.7561C196.768 12.2014 196.797 12.4946 196.855 12.6358C196.912 12.777 197.024 12.8494 197.197 12.8494C197.384 12.8494 197.51 12.7698 197.578 12.6105C197.646 12.4512 197.679 12.1398 197.679 11.6764V10.4961H197.161V8.98642H200.168V14.3193H198.553L198.315 13.6061C198.139 13.9138 197.92 14.1419 197.653 14.2976C197.387 14.4497 197.074 14.5293 196.711 14.5293C196.279 14.5293 195.876 14.4243 195.498 14.2143C195.121 14.0044 194.836 13.7437 194.642 13.4323C194.448 13.121 194.325 12.7951 194.275 12.4548C194.228 12.1145 194.203 11.6004 194.203 10.9161V7.96183C194.203 7.01328 194.253 6.32177 194.354 5.89456C194.455 5.46373 194.746 5.07272 195.229 4.71429C195.711 4.35587 196.333 4.17847 197.099 4.17847C197.866 4.17847 198.477 4.33415 198.974 4.6455C199.47 4.95686 199.794 5.32615 199.945 5.75336C200.096 6.18057 200.172 6.80329 200.172 7.61789V8.04872L200.168 8.04148Z" fill="#374E88"/>
</svg>
